<?xml version="1.0" encoding="utf-8" standalone="no"?>
<!DOCTYPE svg PUBLIC "-//W3C//DTD SVG 1.1//EN"
  "http://www.w3.org/Graphics/SVG/1.1/DTD/svg11.dtd">
<svg xmlns:xlink="http://www.w3.org/1999/xlink" width="864pt" height="432pt" viewBox="0 0 864 432" xmlns="http://www.w3.org/2000/svg" version="1.1">
 <metadata>
  <rdf:RDF xmlns:dc="http://purl.org/dc/elements/1.1/" xmlns:cc="http://creativecommons.org/ns#" xmlns:rdf="http://www.w3.org/1999/02/22-rdf-syntax-ns#">
   <cc:Work>
    <dc:type rdf:resource="http://purl.org/dc/dcmitype/StillImage"/>
    <dc:date>2024-11-26T07:24:03.704381</dc:date>
    <dc:format>image/svg+xml</dc:format>
    <dc:creator>
     <cc:Agent>
      <dc:title>Matplotlib v3.9.2, https://matplotlib.org/</dc:title>
     </cc:Agent>
    </dc:creator>
   </cc:Work>
  </rdf:RDF>
 </metadata>
 <defs>
  <style type="text/css">*{stroke-linejoin: round; stroke-linecap: butt}</style>
 </defs>
 <g id="figure_1">
  <g id="patch_1">
   <path d="M 0 432 
L 864 432 
L 864 0 
L 0 0 
z
" style="fill: #ffffff"/>
  </g>
  <g id="axes_1">
   <g id="patch_2">
    <path d="M 108 384.48 
L 777.6 384.48 
L 777.6 51.84 
L 108 51.84 
z
" style="fill: #ffffff"/>
   </g>
   <g id="matplotlib.axis_1">
    <g id="xtick_1">
     <g id="line2d_1">
      <path d="M 138.436364 384.48 
L 138.436364 51.84 
" clip-path="url(#pdab9665ea0)" style="fill: none; stroke: #b0b0b0; stroke-width: 0.8; stroke-linecap: square"/>
     </g>
     <g id="line2d_2">
      <defs>
       <path id="m83bea73fe5" d="M 0 0 
L 0 3.5 
" style="stroke: #000000; stroke-width: 0.8"/>
      </defs>
      <g>
       <use xlink:href="#m83bea73fe5" x="138.436364" y="384.48" style="stroke: #000000; stroke-width: 0.8"/>
      </g>
     </g>
     <g id="text_1">
      <!-- 2021-01 -->
      <g transform="translate(117.544957 399.078438) scale(0.1 -0.1)">
       <defs>
        <path id="DejaVuSans-32" d="M 1228 531 
L 3431 531 
L 3431 0 
L 469 0 
L 469 531 
Q 828 903 1448 1529 
Q 2069 2156 2228 2338 
Q 2531 2678 2651 2914 
Q 2772 3150 2772 3378 
Q 2772 3750 2511 3984 
Q 2250 4219 1831 4219 
Q 1534 4219 1204 4116 
Q 875 4013 500 3803 
L 500 4441 
Q 881 4594 1212 4672 
Q 1544 4750 1819 4750 
Q 2544 4750 2975 4387 
Q 3406 4025 3406 3419 
Q 3406 3131 3298 2873 
Q 3191 2616 2906 2266 
Q 2828 2175 2409 1742 
Q 1991 1309 1228 531 
z
" transform="scale(0.015625)"/>
        <path id="DejaVuSans-30" d="M 2034 4250 
Q 1547 4250 1301 3770 
Q 1056 3291 1056 2328 
Q 1056 1369 1301 889 
Q 1547 409 2034 409 
Q 2525 409 2770 889 
Q 3016 1369 3016 2328 
Q 3016 3291 2770 3770 
Q 2525 4250 2034 4250 
z
M 2034 4750 
Q 2819 4750 3233 4129 
Q 3647 3509 3647 2328 
Q 3647 1150 3233 529 
Q 2819 -91 2034 -91 
Q 1250 -91 836 529 
Q 422 1150 422 2328 
Q 422 3509 836 4129 
Q 1250 4750 2034 4750 
z
" transform="scale(0.015625)"/>
        <path id="DejaVuSans-31" d="M 794 531 
L 1825 531 
L 1825 4091 
L 703 3866 
L 703 4441 
L 1819 4666 
L 2450 4666 
L 2450 531 
L 3481 531 
L 3481 0 
L 794 0 
L 794 531 
z
" transform="scale(0.015625)"/>
        <path id="DejaVuSans-2d" d="M 313 2009 
L 1997 2009 
L 1997 1497 
L 313 1497 
L 313 2009 
z
" transform="scale(0.015625)"/>
       </defs>
       <use xlink:href="#DejaVuSans-32"/>
       <use xlink:href="#DejaVuSans-30" x="63.623047"/>
       <use xlink:href="#DejaVuSans-32" x="127.246094"/>
       <use xlink:href="#DejaVuSans-31" x="190.869141"/>
       <use xlink:href="#DejaVuSans-2d" x="254.492188"/>
       <use xlink:href="#DejaVuSans-30" x="290.576172"/>
       <use xlink:href="#DejaVuSans-31" x="354.199219"/>
      </g>
     </g>
    </g>
    <g id="xtick_2">
     <g id="line2d_3">
      <path d="M 205.20718 384.48 
L 205.20718 51.84 
" clip-path="url(#pdab9665ea0)" style="fill: none; stroke: #b0b0b0; stroke-width: 0.8; stroke-linecap: square"/>
     </g>
     <g id="line2d_4">
      <g>
       <use xlink:href="#m83bea73fe5" x="205.20718" y="384.48" style="stroke: #000000; stroke-width: 0.8"/>
      </g>
     </g>
     <g id="text_2">
      <!-- 2021-05 -->
      <g transform="translate(184.315773 399.078438) scale(0.1 -0.1)">
       <defs>
        <path id="DejaVuSans-35" d="M 691 4666 
L 3169 4666 
L 3169 4134 
L 1269 4134 
L 1269 2991 
Q 1406 3038 1543 3061 
Q 1681 3084 1819 3084 
Q 2600 3084 3056 2656 
Q 3513 2228 3513 1497 
Q 3513 744 3044 326 
Q 2575 -91 1722 -91 
Q 1428 -91 1123 -41 
Q 819 9 494 109 
L 494 744 
Q 775 591 1075 516 
Q 1375 441 1709 441 
Q 2250 441 2565 725 
Q 2881 1009 2881 1497 
Q 2881 1984 2565 2268 
Q 2250 2553 1709 2553 
Q 1456 2553 1204 2497 
Q 953 2441 691 2322 
L 691 4666 
z
" transform="scale(0.015625)"/>
       </defs>
       <use xlink:href="#DejaVuSans-32"/>
       <use xlink:href="#DejaVuSans-30" x="63.623047"/>
       <use xlink:href="#DejaVuSans-32" x="127.246094"/>
       <use xlink:href="#DejaVuSans-31" x="190.869141"/>
       <use xlink:href="#DejaVuSans-2d" x="254.492188"/>
       <use xlink:href="#DejaVuSans-30" x="290.576172"/>
       <use xlink:href="#DejaVuSans-35" x="354.199219"/>
      </g>
     </g>
    </g>
    <g id="xtick_3">
     <g id="line2d_5">
      <path d="M 273.647266 384.48 
L 273.647266 51.84 
" clip-path="url(#pdab9665ea0)" style="fill: none; stroke: #b0b0b0; stroke-width: 0.8; stroke-linecap: square"/>
     </g>
     <g id="line2d_6">
      <g>
       <use xlink:href="#m83bea73fe5" x="273.647266" y="384.48" style="stroke: #000000; stroke-width: 0.8"/>
      </g>
     </g>
     <g id="text_3">
      <!-- 2021-09 -->
      <g transform="translate(252.75586 399.078438) scale(0.1 -0.1)">
       <defs>
        <path id="DejaVuSans-39" d="M 703 97 
L 703 672 
Q 941 559 1184 500 
Q 1428 441 1663 441 
Q 2288 441 2617 861 
Q 2947 1281 2994 2138 
Q 2813 1869 2534 1725 
Q 2256 1581 1919 1581 
Q 1219 1581 811 2004 
Q 403 2428 403 3163 
Q 403 3881 828 4315 
Q 1253 4750 1959 4750 
Q 2769 4750 3195 4129 
Q 3622 3509 3622 2328 
Q 3622 1225 3098 567 
Q 2575 -91 1691 -91 
Q 1453 -91 1209 -44 
Q 966 3 703 97 
z
M 1959 2075 
Q 2384 2075 2632 2365 
Q 2881 2656 2881 3163 
Q 2881 3666 2632 3958 
Q 2384 4250 1959 4250 
Q 1534 4250 1286 3958 
Q 1038 3666 1038 3163 
Q 1038 2656 1286 2365 
Q 1534 2075 1959 2075 
z
" transform="scale(0.015625)"/>
       </defs>
       <use xlink:href="#DejaVuSans-32"/>
       <use xlink:href="#DejaVuSans-30" x="63.623047"/>
       <use xlink:href="#DejaVuSans-32" x="127.246094"/>
       <use xlink:href="#DejaVuSans-31" x="190.869141"/>
       <use xlink:href="#DejaVuSans-2d" x="254.492188"/>
       <use xlink:href="#DejaVuSans-30" x="290.576172"/>
       <use xlink:href="#DejaVuSans-39" x="354.199219"/>
      </g>
     </g>
    </g>
    <g id="xtick_4">
     <g id="line2d_7">
      <path d="M 341.530929 384.48 
L 341.530929 51.84 
" clip-path="url(#pdab9665ea0)" style="fill: none; stroke: #b0b0b0; stroke-width: 0.8; stroke-linecap: square"/>
     </g>
     <g id="line2d_8">
      <g>
       <use xlink:href="#m83bea73fe5" x="341.530929" y="384.48" style="stroke: #000000; stroke-width: 0.8"/>
      </g>
     </g>
     <g id="text_4">
      <!-- 2022-01 -->
      <g transform="translate(320.639523 399.078438) scale(0.1 -0.1)">
       <use xlink:href="#DejaVuSans-32"/>
       <use xlink:href="#DejaVuSans-30" x="63.623047"/>
       <use xlink:href="#DejaVuSans-32" x="127.246094"/>
       <use xlink:href="#DejaVuSans-32" x="190.869141"/>
       <use xlink:href="#DejaVuSans-2d" x="254.492188"/>
       <use xlink:href="#DejaVuSans-30" x="290.576172"/>
       <use xlink:href="#DejaVuSans-31" x="354.199219"/>
      </g>
     </g>
    </g>
    <g id="xtick_5">
     <g id="line2d_9">
      <path d="M 408.301745 384.48 
L 408.301745 51.84 
" clip-path="url(#pdab9665ea0)" style="fill: none; stroke: #b0b0b0; stroke-width: 0.8; stroke-linecap: square"/>
     </g>
     <g id="line2d_10">
      <g>
       <use xlink:href="#m83bea73fe5" x="408.301745" y="384.48" style="stroke: #000000; stroke-width: 0.8"/>
      </g>
     </g>
     <g id="text_5">
      <!-- 2022-05 -->
      <g transform="translate(387.410339 399.078438) scale(0.1 -0.1)">
       <use xlink:href="#DejaVuSans-32"/>
       <use xlink:href="#DejaVuSans-30" x="63.623047"/>
       <use xlink:href="#DejaVuSans-32" x="127.246094"/>
       <use xlink:href="#DejaVuSans-32" x="190.869141"/>
       <use xlink:href="#DejaVuSans-2d" x="254.492188"/>
       <use xlink:href="#DejaVuSans-30" x="290.576172"/>
       <use xlink:href="#DejaVuSans-35" x="354.199219"/>
      </g>
     </g>
    </g>
    <g id="xtick_6">
     <g id="line2d_11">
      <path d="M 476.741831 384.48 
L 476.741831 51.84 
" clip-path="url(#pdab9665ea0)" style="fill: none; stroke: #b0b0b0; stroke-width: 0.8; stroke-linecap: square"/>
     </g>
     <g id="line2d_12">
      <g>
       <use xlink:href="#m83bea73fe5" x="476.741831" y="384.48" style="stroke: #000000; stroke-width: 0.8"/>
      </g>
     </g>
     <g id="text_6">
      <!-- 2022-09 -->
      <g transform="translate(455.850425 399.078438) scale(0.1 -0.1)">
       <use xlink:href="#DejaVuSans-32"/>
       <use xlink:href="#DejaVuSans-30" x="63.623047"/>
       <use xlink:href="#DejaVuSans-32" x="127.246094"/>
       <use xlink:href="#DejaVuSans-32" x="190.869141"/>
       <use xlink:href="#DejaVuSans-2d" x="254.492188"/>
       <use xlink:href="#DejaVuSans-30" x="290.576172"/>
       <use xlink:href="#DejaVuSans-39" x="354.199219"/>
      </g>
     </g>
    </g>
    <g id="xtick_7">
     <g id="line2d_13">
      <path d="M 544.625494 384.48 
L 544.625494 51.84 
" clip-path="url(#pdab9665ea0)" style="fill: none; stroke: #b0b0b0; stroke-width: 0.8; stroke-linecap: square"/>
     </g>
     <g id="line2d_14">
      <g>
       <use xlink:href="#m83bea73fe5" x="544.625494" y="384.48" style="stroke: #000000; stroke-width: 0.8"/>
      </g>
     </g>
     <g id="text_7">
      <!-- 2023-01 -->
      <g transform="translate(523.734088 399.078438) scale(0.1 -0.1)">
       <defs>
        <path id="DejaVuSans-33" d="M 2597 2516 
Q 3050 2419 3304 2112 
Q 3559 1806 3559 1356 
Q 3559 666 3084 287 
Q 2609 -91 1734 -91 
Q 1441 -91 1130 -33 
Q 819 25 488 141 
L 488 750 
Q 750 597 1062 519 
Q 1375 441 1716 441 
Q 2309 441 2620 675 
Q 2931 909 2931 1356 
Q 2931 1769 2642 2001 
Q 2353 2234 1838 2234 
L 1294 2234 
L 1294 2753 
L 1863 2753 
Q 2328 2753 2575 2939 
Q 2822 3125 2822 3475 
Q 2822 3834 2567 4026 
Q 2313 4219 1838 4219 
Q 1578 4219 1281 4162 
Q 984 4106 628 3988 
L 628 4550 
Q 988 4650 1302 4700 
Q 1616 4750 1894 4750 
Q 2613 4750 3031 4423 
Q 3450 4097 3450 3541 
Q 3450 3153 3228 2886 
Q 3006 2619 2597 2516 
z
" transform="scale(0.015625)"/>
       </defs>
       <use xlink:href="#DejaVuSans-32"/>
       <use xlink:href="#DejaVuSans-30" x="63.623047"/>
       <use xlink:href="#DejaVuSans-32" x="127.246094"/>
       <use xlink:href="#DejaVuSans-33" x="190.869141"/>
       <use xlink:href="#DejaVuSans-2d" x="254.492188"/>
       <use xlink:href="#DejaVuSans-30" x="290.576172"/>
       <use xlink:href="#DejaVuSans-31" x="354.199219"/>
      </g>
     </g>
    </g>
    <g id="xtick_8">
     <g id="line2d_15">
      <path d="M 611.39631 384.48 
L 611.39631 51.84 
" clip-path="url(#pdab9665ea0)" style="fill: none; stroke: #b0b0b0; stroke-width: 0.8; stroke-linecap: square"/>
     </g>
     <g id="line2d_16">
      <g>
       <use xlink:href="#m83bea73fe5" x="611.39631" y="384.48" style="stroke: #000000; stroke-width: 0.8"/>
      </g>
     </g>
     <g id="text_8">
      <!-- 2023-05 -->
      <g transform="translate(590.504904 399.078438) scale(0.1 -0.1)">
       <use xlink:href="#DejaVuSans-32"/>
       <use xlink:href="#DejaVuSans-30" x="63.623047"/>
       <use xlink:href="#DejaVuSans-32" x="127.246094"/>
       <use xlink:href="#DejaVuSans-33" x="190.869141"/>
       <use xlink:href="#DejaVuSans-2d" x="254.492188"/>
       <use xlink:href="#DejaVuSans-30" x="290.576172"/>
       <use xlink:href="#DejaVuSans-35" x="354.199219"/>
      </g>
     </g>
    </g>
    <g id="xtick_9">
     <g id="line2d_17">
      <path d="M 679.836397 384.48 
L 679.836397 51.84 
" clip-path="url(#pdab9665ea0)" style="fill: none; stroke: #b0b0b0; stroke-width: 0.8; stroke-linecap: square"/>
     </g>
     <g id="line2d_18">
      <g>
       <use xlink:href="#m83bea73fe5" x="679.836397" y="384.48" style="stroke: #000000; stroke-width: 0.8"/>
      </g>
     </g>
     <g id="text_9">
      <!-- 2023-09 -->
      <g transform="translate(658.944991 399.078438) scale(0.1 -0.1)">
       <use xlink:href="#DejaVuSans-32"/>
       <use xlink:href="#DejaVuSans-30" x="63.623047"/>
       <use xlink:href="#DejaVuSans-32" x="127.246094"/>
       <use xlink:href="#DejaVuSans-33" x="190.869141"/>
       <use xlink:href="#DejaVuSans-2d" x="254.492188"/>
       <use xlink:href="#DejaVuSans-30" x="290.576172"/>
       <use xlink:href="#DejaVuSans-39" x="354.199219"/>
      </g>
     </g>
    </g>
    <g id="xtick_10">
     <g id="line2d_19">
      <path d="M 747.72006 384.48 
L 747.72006 51.84 
" clip-path="url(#pdab9665ea0)" style="fill: none; stroke: #b0b0b0; stroke-width: 0.8; stroke-linecap: square"/>
     </g>
     <g id="line2d_20">
      <g>
       <use xlink:href="#m83bea73fe5" x="747.72006" y="384.48" style="stroke: #000000; stroke-width: 0.8"/>
      </g>
     </g>
     <g id="text_10">
      <!-- 2024-01 -->
      <g transform="translate(726.828654 399.078438) scale(0.1 -0.1)">
       <defs>
        <path id="DejaVuSans-34" d="M 2419 4116 
L 825 1625 
L 2419 1625 
L 2419 4116 
z
M 2253 4666 
L 3047 4666 
L 3047 1625 
L 3713 1625 
L 3713 1100 
L 3047 1100 
L 3047 0 
L 2419 0 
L 2419 1100 
L 313 1100 
L 313 1709 
L 2253 4666 
z
" transform="scale(0.015625)"/>
       </defs>
       <use xlink:href="#DejaVuSans-32"/>
       <use xlink:href="#DejaVuSans-30" x="63.623047"/>
       <use xlink:href="#DejaVuSans-32" x="127.246094"/>
       <use xlink:href="#DejaVuSans-34" x="190.869141"/>
       <use xlink:href="#DejaVuSans-2d" x="254.492188"/>
       <use xlink:href="#DejaVuSans-30" x="290.576172"/>
       <use xlink:href="#DejaVuSans-31" x="354.199219"/>
      </g>
     </g>
    </g>
    <g id="text_11">
     <!-- Date -->
     <g transform="translate(430.849219 412.756563) scale(0.1 -0.1)">
      <defs>
       <path id="DejaVuSans-44" d="M 1259 4147 
L 1259 519 
L 2022 519 
Q 2988 519 3436 956 
Q 3884 1394 3884 2338 
Q 3884 3275 3436 3711 
Q 2988 4147 2022 4147 
L 1259 4147 
z
M 628 4666 
L 1925 4666 
Q 3281 4666 3915 4102 
Q 4550 3538 4550 2338 
Q 4550 1131 3912 565 
Q 3275 0 1925 0 
L 628 0 
L 628 4666 
z
" transform="scale(0.015625)"/>
       <path id="DejaVuSans-61" d="M 2194 1759 
Q 1497 1759 1228 1600 
Q 959 1441 959 1056 
Q 959 750 1161 570 
Q 1363 391 1709 391 
Q 2188 391 2477 730 
Q 2766 1069 2766 1631 
L 2766 1759 
L 2194 1759 
z
M 3341 1997 
L 3341 0 
L 2766 0 
L 2766 531 
Q 2569 213 2275 61 
Q 1981 -91 1556 -91 
Q 1019 -91 701 211 
Q 384 513 384 1019 
Q 384 1609 779 1909 
Q 1175 2209 1959 2209 
L 2766 2209 
L 2766 2266 
Q 2766 2663 2505 2880 
Q 2244 3097 1772 3097 
Q 1472 3097 1187 3025 
Q 903 2953 641 2809 
L 641 3341 
Q 956 3463 1253 3523 
Q 1550 3584 1831 3584 
Q 2591 3584 2966 3190 
Q 3341 2797 3341 1997 
z
" transform="scale(0.015625)"/>
       <path id="DejaVuSans-74" d="M 1172 4494 
L 1172 3500 
L 2356 3500 
L 2356 3053 
L 1172 3053 
L 1172 1153 
Q 1172 725 1289 603 
Q 1406 481 1766 481 
L 2356 481 
L 2356 0 
L 1766 0 
Q 1100 0 847 248 
Q 594 497 594 1153 
L 594 3053 
L 172 3053 
L 172 3500 
L 594 3500 
L 594 4494 
L 1172 4494 
z
" transform="scale(0.015625)"/>
       <path id="DejaVuSans-65" d="M 3597 1894 
L 3597 1613 
L 953 1613 
Q 991 1019 1311 708 
Q 1631 397 2203 397 
Q 2534 397 2845 478 
Q 3156 559 3463 722 
L 3463 178 
Q 3153 47 2828 -22 
Q 2503 -91 2169 -91 
Q 1331 -91 842 396 
Q 353 884 353 1716 
Q 353 2575 817 3079 
Q 1281 3584 2069 3584 
Q 2775 3584 3186 3129 
Q 3597 2675 3597 1894 
z
M 3022 2063 
Q 3016 2534 2758 2815 
Q 2500 3097 2075 3097 
Q 1594 3097 1305 2825 
Q 1016 2553 972 2059 
L 3022 2063 
z
" transform="scale(0.015625)"/>
      </defs>
      <use xlink:href="#DejaVuSans-44"/>
      <use xlink:href="#DejaVuSans-61" x="77.001953"/>
      <use xlink:href="#DejaVuSans-74" x="138.28125"/>
      <use xlink:href="#DejaVuSans-65" x="177.490234"/>
     </g>
    </g>
   </g>
   <g id="matplotlib.axis_2">
    <g id="ytick_1">
     <g id="line2d_21">
      <path d="M 108 369.380987 
L 777.6 369.380987 
" clip-path="url(#pdab9665ea0)" style="fill: none; stroke: #b0b0b0; stroke-width: 0.8; stroke-linecap: square"/>
     </g>
     <g id="line2d_22">
      <defs>
       <path id="ma24e27799d" d="M 0 0 
L -3.5 0 
" style="stroke: #000000; stroke-width: 0.8"/>
      </defs>
      <g>
       <use xlink:href="#ma24e27799d" x="108" y="369.380987" style="stroke: #000000; stroke-width: 0.8"/>
      </g>
     </g>
     <g id="text_12">
      <!-- 0 -->
      <g transform="translate(94.6375 373.180206) scale(0.1 -0.1)">
       <use xlink:href="#DejaVuSans-30"/>
      </g>
     </g>
    </g>
    <g id="ytick_2">
     <g id="line2d_23">
      <path d="M 108 327.406056 
L 777.6 327.406056 
" clip-path="url(#pdab9665ea0)" style="fill: none; stroke: #b0b0b0; stroke-width: 0.8; stroke-linecap: square"/>
     </g>
     <g id="line2d_24">
      <g>
       <use xlink:href="#ma24e27799d" x="108" y="327.406056" style="stroke: #000000; stroke-width: 0.8"/>
      </g>
     </g>
     <g id="text_13">
      <!-- 10000 -->
      <g transform="translate(69.1875 331.205275) scale(0.1 -0.1)">
       <use xlink:href="#DejaVuSans-31"/>
       <use xlink:href="#DejaVuSans-30" x="63.623047"/>
       <use xlink:href="#DejaVuSans-30" x="127.246094"/>
       <use xlink:href="#DejaVuSans-30" x="190.869141"/>
       <use xlink:href="#DejaVuSans-30" x="254.492188"/>
      </g>
     </g>
    </g>
    <g id="ytick_3">
     <g id="line2d_25">
      <path d="M 108 285.431124 
L 777.6 285.431124 
" clip-path="url(#pdab9665ea0)" style="fill: none; stroke: #b0b0b0; stroke-width: 0.8; stroke-linecap: square"/>
     </g>
     <g id="line2d_26">
      <g>
       <use xlink:href="#ma24e27799d" x="108" y="285.431124" style="stroke: #000000; stroke-width: 0.8"/>
      </g>
     </g>
     <g id="text_14">
      <!-- 20000 -->
      <g transform="translate(69.1875 289.230343) scale(0.1 -0.1)">
       <use xlink:href="#DejaVuSans-32"/>
       <use xlink:href="#DejaVuSans-30" x="63.623047"/>
       <use xlink:href="#DejaVuSans-30" x="127.246094"/>
       <use xlink:href="#DejaVuSans-30" x="190.869141"/>
       <use xlink:href="#DejaVuSans-30" x="254.492188"/>
      </g>
     </g>
    </g>
    <g id="ytick_4">
     <g id="line2d_27">
      <path d="M 108 243.456193 
L 777.6 243.456193 
" clip-path="url(#pdab9665ea0)" style="fill: none; stroke: #b0b0b0; stroke-width: 0.8; stroke-linecap: square"/>
     </g>
     <g id="line2d_28">
      <g>
       <use xlink:href="#ma24e27799d" x="108" y="243.456193" style="stroke: #000000; stroke-width: 0.8"/>
      </g>
     </g>
     <g id="text_15">
      <!-- 30000 -->
      <g transform="translate(69.1875 247.255411) scale(0.1 -0.1)">
       <use xlink:href="#DejaVuSans-33"/>
       <use xlink:href="#DejaVuSans-30" x="63.623047"/>
       <use xlink:href="#DejaVuSans-30" x="127.246094"/>
       <use xlink:href="#DejaVuSans-30" x="190.869141"/>
       <use xlink:href="#DejaVuSans-30" x="254.492188"/>
      </g>
     </g>
    </g>
    <g id="ytick_5">
     <g id="line2d_29">
      <path d="M 108 201.481261 
L 777.6 201.481261 
" clip-path="url(#pdab9665ea0)" style="fill: none; stroke: #b0b0b0; stroke-width: 0.8; stroke-linecap: square"/>
     </g>
     <g id="line2d_30">
      <g>
       <use xlink:href="#ma24e27799d" x="108" y="201.481261" style="stroke: #000000; stroke-width: 0.8"/>
      </g>
     </g>
     <g id="text_16">
      <!-- 40000 -->
      <g transform="translate(69.1875 205.28048) scale(0.1 -0.1)">
       <use xlink:href="#DejaVuSans-34"/>
       <use xlink:href="#DejaVuSans-30" x="63.623047"/>
       <use xlink:href="#DejaVuSans-30" x="127.246094"/>
       <use xlink:href="#DejaVuSans-30" x="190.869141"/>
       <use xlink:href="#DejaVuSans-30" x="254.492188"/>
      </g>
     </g>
    </g>
    <g id="ytick_6">
     <g id="line2d_31">
      <path d="M 108 159.506329 
L 777.6 159.506329 
" clip-path="url(#pdab9665ea0)" style="fill: none; stroke: #b0b0b0; stroke-width: 0.8; stroke-linecap: square"/>
     </g>
     <g id="line2d_32">
      <g>
       <use xlink:href="#ma24e27799d" x="108" y="159.506329" style="stroke: #000000; stroke-width: 0.8"/>
      </g>
     </g>
     <g id="text_17">
      <!-- 50000 -->
      <g transform="translate(69.1875 163.305548) scale(0.1 -0.1)">
       <use xlink:href="#DejaVuSans-35"/>
       <use xlink:href="#DejaVuSans-30" x="63.623047"/>
       <use xlink:href="#DejaVuSans-30" x="127.246094"/>
       <use xlink:href="#DejaVuSans-30" x="190.869141"/>
       <use xlink:href="#DejaVuSans-30" x="254.492188"/>
      </g>
     </g>
    </g>
    <g id="ytick_7">
     <g id="line2d_33">
      <path d="M 108 117.531398 
L 777.6 117.531398 
" clip-path="url(#pdab9665ea0)" style="fill: none; stroke: #b0b0b0; stroke-width: 0.8; stroke-linecap: square"/>
     </g>
     <g id="line2d_34">
      <g>
       <use xlink:href="#ma24e27799d" x="108" y="117.531398" style="stroke: #000000; stroke-width: 0.8"/>
      </g>
     </g>
     <g id="text_18">
      <!-- 60000 -->
      <g transform="translate(69.1875 121.330616) scale(0.1 -0.1)">
       <defs>
        <path id="DejaVuSans-36" d="M 2113 2584 
Q 1688 2584 1439 2293 
Q 1191 2003 1191 1497 
Q 1191 994 1439 701 
Q 1688 409 2113 409 
Q 2538 409 2786 701 
Q 3034 994 3034 1497 
Q 3034 2003 2786 2293 
Q 2538 2584 2113 2584 
z
M 3366 4563 
L 3366 3988 
Q 3128 4100 2886 4159 
Q 2644 4219 2406 4219 
Q 1781 4219 1451 3797 
Q 1122 3375 1075 2522 
Q 1259 2794 1537 2939 
Q 1816 3084 2150 3084 
Q 2853 3084 3261 2657 
Q 3669 2231 3669 1497 
Q 3669 778 3244 343 
Q 2819 -91 2113 -91 
Q 1303 -91 875 529 
Q 447 1150 447 2328 
Q 447 3434 972 4092 
Q 1497 4750 2381 4750 
Q 2619 4750 2861 4703 
Q 3103 4656 3366 4563 
z
" transform="scale(0.015625)"/>
       </defs>
       <use xlink:href="#DejaVuSans-36"/>
       <use xlink:href="#DejaVuSans-30" x="63.623047"/>
       <use xlink:href="#DejaVuSans-30" x="127.246094"/>
       <use xlink:href="#DejaVuSans-30" x="190.869141"/>
       <use xlink:href="#DejaVuSans-30" x="254.492188"/>
      </g>
     </g>
    </g>
    <g id="ytick_8">
     <g id="line2d_35">
      <path d="M 108 75.556466 
L 777.6 75.556466 
" clip-path="url(#pdab9665ea0)" style="fill: none; stroke: #b0b0b0; stroke-width: 0.8; stroke-linecap: square"/>
     </g>
     <g id="line2d_36">
      <g>
       <use xlink:href="#ma24e27799d" x="108" y="75.556466" style="stroke: #000000; stroke-width: 0.8"/>
      </g>
     </g>
     <g id="text_19">
      <!-- 70000 -->
      <g transform="translate(69.1875 79.355685) scale(0.1 -0.1)">
       <defs>
        <path id="DejaVuSans-37" d="M 525 4666 
L 3525 4666 
L 3525 4397 
L 1831 0 
L 1172 0 
L 2766 4134 
L 525 4134 
L 525 4666 
z
" transform="scale(0.015625)"/>
       </defs>
       <use xlink:href="#DejaVuSans-37"/>
       <use xlink:href="#DejaVuSans-30" x="63.623047"/>
       <use xlink:href="#DejaVuSans-30" x="127.246094"/>
       <use xlink:href="#DejaVuSans-30" x="190.869141"/>
       <use xlink:href="#DejaVuSans-30" x="254.492188"/>
      </g>
     </g>
    </g>
    <g id="text_20">
     <!-- Total Amount -->
     <g transform="translate(63.107812 251.073281) rotate(-90) scale(0.1 -0.1)">
      <defs>
       <path id="DejaVuSans-54" d="M -19 4666 
L 3928 4666 
L 3928 4134 
L 2272 4134 
L 2272 0 
L 1638 0 
L 1638 4134 
L -19 4134 
L -19 4666 
z
" transform="scale(0.015625)"/>
       <path id="DejaVuSans-6f" d="M 1959 3097 
Q 1497 3097 1228 2736 
Q 959 2375 959 1747 
Q 959 1119 1226 758 
Q 1494 397 1959 397 
Q 2419 397 2687 759 
Q 2956 1122 2956 1747 
Q 2956 2369 2687 2733 
Q 2419 3097 1959 3097 
z
M 1959 3584 
Q 2709 3584 3137 3096 
Q 3566 2609 3566 1747 
Q 3566 888 3137 398 
Q 2709 -91 1959 -91 
Q 1206 -91 779 398 
Q 353 888 353 1747 
Q 353 2609 779 3096 
Q 1206 3584 1959 3584 
z
" transform="scale(0.015625)"/>
       <path id="DejaVuSans-6c" d="M 603 4863 
L 1178 4863 
L 1178 0 
L 603 0 
L 603 4863 
z
" transform="scale(0.015625)"/>
       <path id="DejaVuSans-20" transform="scale(0.015625)"/>
       <path id="DejaVuSans-41" d="M 2188 4044 
L 1331 1722 
L 3047 1722 
L 2188 4044 
z
M 1831 4666 
L 2547 4666 
L 4325 0 
L 3669 0 
L 3244 1197 
L 1141 1197 
L 716 0 
L 50 0 
L 1831 4666 
z
" transform="scale(0.015625)"/>
       <path id="DejaVuSans-6d" d="M 3328 2828 
Q 3544 3216 3844 3400 
Q 4144 3584 4550 3584 
Q 5097 3584 5394 3201 
Q 5691 2819 5691 2113 
L 5691 0 
L 5113 0 
L 5113 2094 
Q 5113 2597 4934 2840 
Q 4756 3084 4391 3084 
Q 3944 3084 3684 2787 
Q 3425 2491 3425 1978 
L 3425 0 
L 2847 0 
L 2847 2094 
Q 2847 2600 2669 2842 
Q 2491 3084 2119 3084 
Q 1678 3084 1418 2786 
Q 1159 2488 1159 1978 
L 1159 0 
L 581 0 
L 581 3500 
L 1159 3500 
L 1159 2956 
Q 1356 3278 1631 3431 
Q 1906 3584 2284 3584 
Q 2666 3584 2933 3390 
Q 3200 3197 3328 2828 
z
" transform="scale(0.015625)"/>
       <path id="DejaVuSans-75" d="M 544 1381 
L 544 3500 
L 1119 3500 
L 1119 1403 
Q 1119 906 1312 657 
Q 1506 409 1894 409 
Q 2359 409 2629 706 
Q 2900 1003 2900 1516 
L 2900 3500 
L 3475 3500 
L 3475 0 
L 2900 0 
L 2900 538 
Q 2691 219 2414 64 
Q 2138 -91 1772 -91 
Q 1169 -91 856 284 
Q 544 659 544 1381 
z
M 1991 3584 
L 1991 3584 
z
" transform="scale(0.015625)"/>
       <path id="DejaVuSans-6e" d="M 3513 2113 
L 3513 0 
L 2938 0 
L 2938 2094 
Q 2938 2591 2744 2837 
Q 2550 3084 2163 3084 
Q 1697 3084 1428 2787 
Q 1159 2491 1159 1978 
L 1159 0 
L 581 0 
L 581 3500 
L 1159 3500 
L 1159 2956 
Q 1366 3272 1645 3428 
Q 1925 3584 2291 3584 
Q 2894 3584 3203 3211 
Q 3513 2838 3513 2113 
z
" transform="scale(0.015625)"/>
      </defs>
      <use xlink:href="#DejaVuSans-54"/>
      <use xlink:href="#DejaVuSans-6f" x="44.083984"/>
      <use xlink:href="#DejaVuSans-74" x="105.265625"/>
      <use xlink:href="#DejaVuSans-61" x="144.474609"/>
      <use xlink:href="#DejaVuSans-6c" x="205.753906"/>
      <use xlink:href="#DejaVuSans-20" x="233.537109"/>
      <use xlink:href="#DejaVuSans-41" x="265.324219"/>
      <use xlink:href="#DejaVuSans-6d" x="333.732422"/>
      <use xlink:href="#DejaVuSans-6f" x="431.144531"/>
      <use xlink:href="#DejaVuSans-75" x="492.326172"/>
      <use xlink:href="#DejaVuSans-6e" x="555.705078"/>
      <use xlink:href="#DejaVuSans-74" x="619.083984"/>
     </g>
    </g>
   </g>
   <g id="line2d_37">
    <path d="M 138.436364 344.447878 
L 139.549211 320.954509 
L 141.218481 335.045493 
L 141.774904 362.455124 
L 142.331328 367.75236 
L 143.444175 368.415564 
L 145.113445 345.912803 
L 146.226292 346.0849 
L 147.339139 366.707184 
L 147.895563 368.10495 
L 148.451986 364.898065 
L 149.00841 362.874873 
L 150.121256 364.323008 
L 150.67768 354.798896 
L 151.234103 369.082965 
L 151.790527 367.395573 
L 152.903374 367.156316 
L 153.459797 357.073938 
L 154.016221 361.749945 
L 154.572644 347.281186 
L 155.129068 361.179086 
L 156.798338 360.276625 
L 157.354762 354.521862 
L 158.467608 361.74155 
L 159.024032 367.88668 
L 159.580455 362.648208 
L 160.693302 351.113497 
L 162.362573 365.855093 
L 163.47542 352.926814 
L 164.031843 366.358792 
L 164.588267 360.666992 
L 165.701114 364.008196 
L 166.81396 366.568667 
L 167.370384 359.970208 
L 167.926807 366.673604 
L 168.483231 365.687193 
L 169.039654 344.342941 
L 169.596078 368.260257 
L 172.378195 359.390954 
L 172.934619 368.352602 
L 174.047466 357.921831 
L 175.160312 368.306429 
L 175.716736 369.36 
L 176.829583 368.541489 
L 177.94243 364.77214 
L 180.168124 368.927658 
L 180.724547 356.389746 
L 181.280971 359.974405 
L 181.837394 359.260831 
L 182.950241 337.715099 
L 183.506664 363.806717 
L 185.175935 322.322892 
L 185.732358 367.555078 
L 186.288782 360.293415 
L 186.845205 337.001525 
L 187.401629 365.897068 
L 188.514476 362.664998 
L 189.070899 175.708653 
L 189.627323 332.988722 
L 191.296593 355.751727 
L 191.853016 368.768153 
L 192.40944 346.311565 
L 192.965863 357.724549 
L 194.07871 361.036371 
L 196.304404 361.237851 
L 196.860828 364.474118 
L 200.755792 367.030391 
L 201.312215 369.011608 
L 201.868639 344.351336 
L 202.425062 366.148918 
L 202.981486 359.369966 
L 204.094333 341.211611 
L 205.20718 331.771449 
L 206.320027 367.282241 
L 206.87645 367.98742 
L 207.432874 360.944026 
L 207.989297 369.297038 
L 209.102144 354.332974 
L 210.214991 363.827704 
L 211.884261 367.995815 
L 212.440685 357.544057 
L 212.997108 359.596631 
L 213.553532 339.473849 
L 214.109955 367.047181 
L 214.666379 353.615203 
L 216.892072 363.777334 
L 217.448496 361.313406 
L 219.117766 366.136325 
L 220.230613 309.60029 
L 221.34346 343.570602 
L 221.899884 341.51383 
L 222.456307 360.08354 
L 223.012731 361.766735 
L 223.569154 369.297038 
L 224.125578 362.169694 
L 224.682001 346.513045 
L 225.794848 328.13642 
L 226.351271 338.067688 
L 226.907695 367.76915 
L 227.464118 345.195032 
L 228.020542 366.451137 
L 228.576965 368.033592 
L 229.133389 363.609434 
L 229.689812 366.29583 
L 230.246236 352.64978 
L 230.802659 362.753146 
L 231.359083 351.323372 
L 231.915506 312.177551 
L 232.47193 357.737141 
L 233.028353 360.721559 
L 233.584776 362.832898 
L 234.1412 368.902473 
L 234.697623 357.292207 
L 235.254047 348.330559 
L 236.366894 363.206475 
L 237.479741 364.910657 
L 238.592588 361.477108 
L 239.149011 356.452709 
L 239.705435 364.163503 
L 240.261858 348.960183 
L 240.818282 364.394366 
L 241.374705 348.477472 
L 241.931128 353.283601 
L 242.487552 353.237429 
L 243.043975 365.813118 
L 244.156822 355.961602 
L 244.713246 364.092146 
L 245.826093 365.242259 
L 246.382516 333.853405 
L 246.93894 366.46373 
L 247.495363 359.474904 
L 248.051787 368.432354 
L 249.164634 359.504286 
L 249.721057 368.604451 
L 250.27748 367.95384 
L 250.833904 368.957041 
L 251.390327 362.933638 
L 251.946751 367.450141 
L 252.503174 355.109511 
L 253.059598 66.96 
L 254.172445 367.882482 
L 254.728868 368.541489 
L 256.954562 364.369181 
L 258.067409 369.020003 
L 258.623832 332.27095 
L 259.180256 368.839511 
L 259.736679 353.867053 
L 260.293103 365.015595 
L 260.849526 369.255063 
L 261.962373 364.134121 
L 262.518797 358.937624 
L 263.07522 365.498306 
L 263.631644 367.597053 
L 264.744491 359.441324 
L 265.300914 366.32941 
L 265.857338 354.622602 
L 266.413761 360.347982 
L 267.526608 368.751363 
L 268.083031 367.70199 
L 269.195878 357.527267 
L 269.752302 366.917059 
L 270.308725 356.234439 
L 270.865149 354.034952 
L 271.421572 350.366343 
L 273.647266 330.545781 
L 274.20369 317.533552 
L 275.316536 358.299606 
L 275.87296 367.408166 
L 276.429383 360.38576 
L 276.985807 367.61804 
L 278.655077 362.849688 
L 279.211501 358.748737 
L 280.880771 325.936933 
L 281.437195 358.72775 
L 281.993618 352.007563 
L 283.106465 367.643225 
L 284.219312 363.336597 
L 284.775735 345.253797 
L 285.332159 368.474329 
L 285.888582 362.694381 
L 287.001429 363.504497 
L 287.557853 363.1645 
L 289.227123 369.221483 
L 290.33997 337.786456 
L 291.452817 346.576007 
L 292.00924 366.073363 
L 293.122087 368.302232 
L 293.678511 363.781532 
L 294.234934 368.12174 
L 294.791358 363.29882 
L 295.347781 363.525485 
L 297.017052 365.473121 
L 298.686322 360.112923 
L 299.242746 364.97362 
L 299.799169 359.474904 
L 300.912016 358.370963 
L 301.468439 365.275839 
L 302.024863 341.585188 
L 302.581286 362.438334 
L 303.13771 368.994818 
L 303.694133 358.299606 
L 304.250557 367.743965 
L 304.80698 351.600406 
L 305.363404 363.391165 
L 305.919827 338.789657 
L 307.032674 369.297038 
L 308.701944 354.186062 
L 309.258368 361.817105 
L 309.814791 366.673604 
L 310.927638 361.258838 
L 312.596909 358.400345 
L 313.153332 353.438908 
L 313.709756 351.310779 
L 314.266179 360.801311 
L 314.822603 366.543482 
L 315.379026 363.223265 
L 315.93545 366.652617 
L 316.491873 364.192886 
L 317.048296 367.445943 
L 318.717567 358.068743 
L 320.386837 367.693595 
L 321.499684 355.302595 
L 322.056108 366.761752 
L 322.612531 365.934846 
L 324.281802 366.686197 
L 324.838225 366.568667 
L 325.394648 357.737141 
L 325.951072 359.332189 
L 327.620342 367.844705 
L 328.733189 363.36598 
L 329.289613 368.050382 
L 329.846036 367.844705 
L 330.40246 361.237851 
L 331.515307 368.982226 
L 332.07173 366.711382 
L 332.628154 367.78594 
L 333.184577 364.72177 
L 333.741 368.562476 
L 334.297424 330.142821 
L 334.853847 362.547469 
L 336.523118 368.167912 
L 337.079541 356.486288 
L 337.635965 364.092146 
L 339.305235 362.564259 
L 340.418082 361.191678 
L 340.974506 347.780688 
L 341.530929 364.55387 
L 342.087353 355.126301 
L 342.643776 361.47291 
L 343.200199 362.329199 
L 343.756623 364.566463 
L 344.313046 365.846698 
L 344.86947 363.420547 
L 346.53874 367.995815 
L 348.208011 351.835466 
L 349.320858 366.975824 
L 349.877281 362.094139 
L 352.659398 347.486863 
L 353.215822 367.911865 
L 353.772245 367.051379 
L 354.885092 368.814326 
L 355.997939 367.6852 
L 356.554363 366.090153 
L 357.66721 360.440327 
L 359.33648 368.650624 
L 361.562174 363.14771 
L 362.675021 367.517301 
L 363.231444 354.379147 
L 364.344291 366.702987 
L 365.457138 368.625439 
L 367.682832 366.241263 
L 369.352102 368.793338 
L 369.908526 327.674695 
L 371.021373 353.925818 
L 371.577796 362.635616 
L 372.13422 353.7873 
L 373.247067 365.892871 
L 373.80349 347.113286 
L 374.359914 368.700994 
L 374.916337 368.352602 
L 375.472761 366.694592 
L 376.029184 369.339013 
L 376.585607 363.563262 
L 377.698454 369.213088 
L 378.254878 349.2666 
L 380.480572 360.020578 
L 381.593419 346.445885 
L 382.149842 367.907667 
L 383.262689 355.617407 
L 384.375536 362.413149 
L 384.931959 365.099544 
L 385.488383 352.73373 
L 386.60123 367.882482 
L 387.157653 369.137533 
L 388.2705 334.961544 
L 388.826924 355.650987 
L 389.383347 368.05458 
L 390.496194 357.267022 
L 391.609041 350.383133 
L 392.165465 362.539074 
L 392.721888 365.624231 
L 393.278311 365.074359 
L 393.834735 367.88668 
L 394.947582 356.125304 
L 395.504005 360.499092 
L 396.060429 366.862492 
L 396.616852 362.434136 
L 397.729699 361.242048 
L 401.624663 362.664998 
L 402.73751 368.029395 
L 403.293934 353.468291 
L 403.850357 361.128716 
L 404.406781 354.547047 
L 404.963204 354.815686 
L 406.632475 361.783525 
L 407.188898 369.280248 
L 408.301745 366.350397 
L 408.858169 367.76915 
L 409.414592 343.47406 
L 409.971015 368.289639 
L 410.527439 356.444314 
L 411.083862 364.46992 
L 411.640286 364.99041 
L 412.753133 357.334182 
L 413.309556 363.407955 
L 413.86598 334.420067 
L 414.422403 314.578517 
L 414.978827 366.04398 
L 415.53525 360.637609 
L 416.091674 368.768153 
L 416.648097 364.700783 
L 417.760944 366.904466 
L 418.317367 363.953629 
L 418.873791 366.190893 
L 419.430214 369.36 
L 419.986638 360.247242 
L 421.099485 368.549884 
L 421.655908 366.425952 
L 423.325179 369.213088 
L 423.881602 360.356377 
L 424.438026 354.165075 
L 425.550873 355.953207 
L 426.107296 341.492843 
L 427.776566 359.852678 
L 428.33299 351.499667 
L 428.889413 360.10033 
L 429.445837 364.646215 
L 430.00226 366.702987 
L 431.115107 338.050898 
L 431.671531 365.712378 
L 432.227954 362.698578 
L 432.784378 358.673182 
L 433.340801 367.441746 
L 434.453648 356.948013 
L 435.010071 362.568456 
L 436.679342 368.520501 
L 437.235765 349.887829 
L 437.792189 357.544057 
L 438.348612 369.238273 
L 438.905036 365.099544 
L 439.461459 354.353962 
L 440.017883 301.784558 
L 440.574306 366.862492 
L 441.13073 366.589655 
L 441.687153 364.385971 
L 443.356423 368.247664 
L 443.912847 362.673393 
L 445.025694 239.426599 
L 446.138541 362.715368 
L 446.694964 342.949373 
L 447.251388 340.535814 
L 447.807811 368.436552 
L 448.364235 352.171265 
L 448.920658 364.679795 
L 449.477082 320.077233 
L 450.589929 359.231449 
L 451.146352 362.950428 
L 452.815622 363.189685 
L 453.372046 366.022993 
L 453.928469 358.173681 
L 454.484893 364.243256 
L 455.041316 354.286802 
L 455.59774 366.556075 
L 456.154163 351.550037 
L 456.710587 367.693595 
L 457.823434 365.489911 
L 458.936281 365.842501 
L 460.049127 368.898276 
L 460.605551 365.804723 
L 461.161974 368.860498 
L 462.274821 368.751363 
L 462.831245 365.779538 
L 464.500515 365.288432 
L 465.056939 358.417135 
L 465.613362 368.923461 
L 466.169786 368.163714 
L 466.726209 204.293581 
L 467.282633 366.715579 
L 468.951903 368.184702 
L 469.508326 356.410734 
L 470.06475 363.487707 
L 470.621173 366.568667 
L 471.73402 368.138529 
L 472.290444 360.440327 
L 473.403291 361.170691 
L 473.959714 363.941036 
L 475.628985 364.713375 
L 476.185408 368.986423 
L 476.741831 323.133008 
L 477.298255 367.827915 
L 477.854678 351.957193 
L 478.967525 358.501085 
L 479.523949 349.673757 
L 480.080372 364.302021 
L 481.193219 369.313828 
L 481.749643 359.390954 
L 482.86249 364.46992 
L 483.975337 367.76915 
L 484.53176 365.05757 
L 486.20103 363.034378 
L 487.313877 368.906671 
L 487.870301 358.299606 
L 488.426724 360.255637 
L 488.983148 334.122045 
L 490.095995 338.546203 
L 490.652418 366.371385 
L 491.208842 364.058566 
L 491.765265 362.455124 
L 492.321689 368.205689 
L 492.878112 363.126723 
L 493.434535 363.571657 
L 493.990959 364.377576 
L 494.547382 345.153057 
L 495.103806 367.492116 
L 495.660229 361.426738 
L 496.216653 367.042984 
L 497.3295 359.835888 
L 497.885923 361.552663 
L 498.99877 346.33675 
L 499.555194 363.462522 
L 500.111617 339.545206 
L 501.224464 362.094139 
L 501.780887 366.572865 
L 502.337311 368.167912 
L 502.893734 364.218071 
L 503.450158 369.297038 
L 504.006581 367.8531 
L 506.232275 368.990621 
L 507.345122 360.457117 
L 507.901546 340.859021 
L 508.457969 366.417557 
L 509.014393 356.314191 
L 509.570816 343.18863 
L 510.683663 367.622238 
L 511.79651 365.989413 
L 512.909357 366.207683 
L 513.46578 366.073363 
L 514.578627 366.598049 
L 515.691474 363.941036 
L 516.247898 365.393369 
L 516.804321 348.939196 
L 517.360745 365.418554 
L 518.473591 366.27904 
L 519.586438 354.589022 
L 520.699285 366.316817 
L 521.255709 367.70199 
L 521.812132 364.511895 
L 522.924979 365.414356 
L 524.037826 350.303381 
L 525.707097 369.339013 
L 528.489214 350.613996 
L 529.045637 367.743965 
L 531.271331 360.188477 
L 531.827755 365.015595 
L 532.384178 366.803727 
L 532.940602 349.111293 
L 533.497025 367.215081 
L 534.053449 362.736356 
L 534.609872 362.152904 
L 536.835566 352.943604 
L 537.948413 368.12174 
L 538.504836 353.682363 
L 539.617683 363.689187 
L 540.174107 363.34919 
L 541.843377 361.401553 
L 542.399801 365.796328 
L 544.069071 341.303956 
L 544.625494 367.336808 
L 546.294765 366.539285 
L 547.407612 366.409162 
L 549.076882 364.218071 
L 549.633306 366.29583 
L 550.189729 369.30963 
L 551.302576 367.437548 
L 552.415423 363.504497 
L 552.971846 363.374375 
L 553.52827 323.594732 
L 554.084693 314.016053 
L 554.641117 368.029395 
L 555.19754 363.945234 
L 555.753964 366.409162 
L 556.310387 366.736567 
L 556.866811 369.166915 
L 557.423234 363.445732 
L 557.979658 368.805931 
L 558.536081 359.437126 
L 559.092505 368.205689 
L 559.648928 349.409315 
L 561.318198 337.882999 
L 561.874622 326.944332 
L 562.987469 364.65461 
L 564.100316 319.867358 
L 564.656739 352.784099 
L 565.213163 355.508273 
L 565.769586 366.845702 
L 566.32601 365.036582 
L 567.438857 346.40391 
L 567.99528 362.396359 
L 568.551704 366.900269 
L 569.108127 361.40575 
L 569.66455 369.082965 
L 570.777397 365.292629 
L 571.333821 369.053583 
L 571.890244 363.210673 
L 573.003091 369.10815 
L 573.559515 366.875084 
L 574.115938 326.906554 
L 575.228785 368.411367 
L 575.785209 369.116545 
L 576.341632 367.026194 
L 576.898056 356.889248 
L 578.010902 354.228037 
L 579.123749 363.538077 
L 580.236596 354.521862 
L 581.349443 369.25926 
L 582.46229 360.776126 
L 583.575137 367.86989 
L 584.131561 367.90347 
L 585.244408 363.848691 
L 588.582948 364.092146 
L 589.139372 366.816319 
L 590.808642 352.112501 
L 591.365066 325.189779 
L 591.921489 366.253855 
L 592.477913 369.116545 
L 593.034336 339.536811 
L 593.59076 366.610642 
L 594.147183 364.780535 
L 594.703606 368.617044 
L 595.26003 350.240419 
L 595.816453 364.314613 
L 596.372877 365.317814 
L 596.9293 368.583464 
L 598.042147 365.670404 
L 598.598571 357.12011 
L 599.154994 367.743965 
L 599.711418 368.654821 
L 600.824265 366.736567 
L 601.380688 358.274421 
L 601.937112 363.08055 
L 602.493535 353.514463 
L 603.049958 349.107095 
L 603.606382 360.780324 
L 604.719229 357.741339 
L 606.388499 362.539074 
L 606.944923 367.928655 
L 608.05777 357.821091 
L 608.614193 367.639028 
L 609.170617 368.12174 
L 610.283464 364.054369 
L 611.952734 326.12582 
L 612.509157 331.901571 
L 613.622004 366.119535 
L 614.178428 343.776279 
L 614.734851 341.719508 
L 617.516969 285.573839 
L 618.073392 363.252647 
L 618.629816 368.688401 
L 619.186239 355.839875 
L 619.742662 365.326209 
L 620.299086 355.189263 
L 620.855509 363.546472 
L 621.411933 361.60723 
L 621.968356 363.118328 
L 622.52478 360.629214 
L 623.081203 361.67439 
L 623.637627 355.227041 
L 625.863321 368.293837 
L 626.419744 366.963231 
L 626.976168 362.035374 
L 627.532591 364.201281 
L 628.645438 357.795906 
L 629.758285 321.819192 
L 630.871132 367.890877 
L 631.427555 368.629636 
L 633.096826 354.933216 
L 633.653249 361.019581 
L 634.766096 368.184702 
L 635.32252 368.163714 
L 635.878943 366.354595 
L 636.435366 354.446307 
L 636.99179 368.377787 
L 637.548213 367.177304 
L 639.773907 363.768939 
L 640.886754 363.953629 
L 641.443178 366.875084 
L 641.999601 336.648936 
L 642.556025 350.584613 
L 643.112448 357.141097 
L 643.668872 368.306429 
L 644.225295 367.66841 
L 644.781718 241.525346 
L 645.338142 369.30963 
L 647.007412 364.528685 
L 647.563836 369.27605 
L 648.676683 299.156927 
L 649.233106 357.418132 
L 650.345953 367.81952 
L 650.902377 361.846487 
L 651.4588 345.379722 
L 653.684494 363.966221 
L 654.797341 368.663216 
L 655.353764 363.798322 
L 657.579458 358.131706 
L 658.692305 359.827493 
L 659.248729 353.086319 
L 660.361576 366.812122 
L 660.917999 368.671611 
L 661.474422 354.169272 
L 662.587269 369.015806 
L 663.143693 346.181443 
L 663.700116 362.849688 
L 664.25654 365.032385 
L 664.812963 352.695952 
L 665.92581 359.252436 
L 666.482234 365.443739 
L 667.038657 360.771929 
L 668.707928 362.001794 
L 670.377198 359.290214 
L 670.933621 357.737141 
L 671.490045 358.450715 
L 672.046468 360.742547 
L 673.159315 367.832112 
L 673.715739 359.076142 
L 674.272162 330.142821 
L 674.828586 365.179297 
L 675.385009 331.683301 
L 675.941433 353.447303 
L 676.497856 362.790923 
L 677.610703 359.911443 
L 678.72355 369.322223 
L 679.279973 369.221483 
L 679.836397 354.891241 
L 680.39282 361.099333 
L 680.949244 357.027765 
L 682.618514 362.602036 
L 683.174938 368.046185 
L 683.731361 363.672397 
L 684.287785 300.886294 
L 685.957055 365.628429 
L 686.513478 367.710385 
L 687.069902 358.782317 
L 687.626325 361.67439 
L 688.182749 367.559275 
L 689.295596 368.646426 
L 689.852019 347.411308 
L 690.408443 368.180504 
L 691.52129 351.625591 
L 692.634137 358.39195 
L 693.19056 345.350339 
L 693.746984 361.137111 
L 694.303407 355.256423 
L 695.416254 367.97063 
L 697.085524 365.196087 
L 697.641948 344.200226 
L 698.198371 342.319749 
L 698.754795 364.436341 
L 699.311218 353.70335 
L 699.867642 357.124307 
L 702.093336 358.773922 
L 703.762606 357.921831 
L 704.319029 355.4621 
L 704.875453 369.267655 
L 705.431876 357.850474 
L 705.9883 361.80871 
L 707.101147 359.416139 
L 707.65757 367.78594 
L 708.213994 363.764742 
L 708.770417 368.310627 
L 709.883264 357.460107 
L 710.439688 361.481305 
L 712.108958 343.478257 
L 712.665381 327.443833 
L 713.221805 366.879282 
L 713.778228 368.314824 
L 714.334652 361.733155 
L 714.891075 361.85908 
L 716.560346 368.050382 
L 718.229616 357.107517 
L 718.78604 367.466931 
L 720.45531 358.278618 
L 721.011733 360.230452 
L 721.568157 368.650624 
L 722.12458 323.355475 
L 722.681004 348.448089 
L 724.350274 369.297038 
L 724.906698 359.449719 
L 725.463121 364.63782 
L 726.019545 360.23465 
L 726.575968 364.730165 
L 728.245238 369.007411 
L 729.358085 367.345203 
L 729.914509 365.036582 
L 732.140203 344.447878 
L 733.25305 358.173681 
L 733.809473 366.627432 
L 734.365897 360.297612 
L 734.92232 350.912018 
L 735.478744 347.495258 
L 736.035167 367.332611 
L 736.59159 364.545475 
L 737.704437 368.138529 
L 738.260861 365.871883 
L 738.817284 368.617044 
L 739.930131 284.927425 
L 740.486555 366.484717 
L 741.042978 365.729168 
L 741.599402 362.677591 
L 742.155825 368.680006 
L 742.712249 368.281244 
L 743.268672 354.790501 
L 743.825096 367.86989 
L 744.937942 367.878285 
L 746.607213 368.486921 
L 747.163636 368.843708 
L 747.163636 368.843708 
" clip-path="url(#pdab9665ea0)" style="fill: none; stroke: #1f77b4; stroke-width: 1.5; stroke-linecap: square"/>
   </g>
   <g id="patch_3">
    <path d="M 108 384.48 
L 108 51.84 
" style="fill: none; stroke: #000000; stroke-width: 0.8; stroke-linejoin: miter; stroke-linecap: square"/>
   </g>
   <g id="patch_4">
    <path d="M 777.6 384.48 
L 777.6 51.84 
" style="fill: none; stroke: #000000; stroke-width: 0.8; stroke-linejoin: miter; stroke-linecap: square"/>
   </g>
   <g id="patch_5">
    <path d="M 108 384.48 
L 777.6 384.48 
" style="fill: none; stroke: #000000; stroke-width: 0.8; stroke-linejoin: miter; stroke-linecap: square"/>
   </g>
   <g id="patch_6">
    <path d="M 108 51.84 
L 777.6 51.84 
" style="fill: none; stroke: #000000; stroke-width: 0.8; stroke-linejoin: miter; stroke-linecap: square"/>
   </g>
   <g id="text_21">
    <!-- Total Sales Over Time -->
    <g transform="translate(377.984062 45.84) scale(0.12 -0.12)">
     <defs>
      <path id="DejaVuSans-53" d="M 3425 4513 
L 3425 3897 
Q 3066 4069 2747 4153 
Q 2428 4238 2131 4238 
Q 1616 4238 1336 4038 
Q 1056 3838 1056 3469 
Q 1056 3159 1242 3001 
Q 1428 2844 1947 2747 
L 2328 2669 
Q 3034 2534 3370 2195 
Q 3706 1856 3706 1288 
Q 3706 609 3251 259 
Q 2797 -91 1919 -91 
Q 1588 -91 1214 -16 
Q 841 59 441 206 
L 441 856 
Q 825 641 1194 531 
Q 1563 422 1919 422 
Q 2459 422 2753 634 
Q 3047 847 3047 1241 
Q 3047 1584 2836 1778 
Q 2625 1972 2144 2069 
L 1759 2144 
Q 1053 2284 737 2584 
Q 422 2884 422 3419 
Q 422 4038 858 4394 
Q 1294 4750 2059 4750 
Q 2388 4750 2728 4690 
Q 3069 4631 3425 4513 
z
" transform="scale(0.015625)"/>
      <path id="DejaVuSans-73" d="M 2834 3397 
L 2834 2853 
Q 2591 2978 2328 3040 
Q 2066 3103 1784 3103 
Q 1356 3103 1142 2972 
Q 928 2841 928 2578 
Q 928 2378 1081 2264 
Q 1234 2150 1697 2047 
L 1894 2003 
Q 2506 1872 2764 1633 
Q 3022 1394 3022 966 
Q 3022 478 2636 193 
Q 2250 -91 1575 -91 
Q 1294 -91 989 -36 
Q 684 19 347 128 
L 347 722 
Q 666 556 975 473 
Q 1284 391 1588 391 
Q 1994 391 2212 530 
Q 2431 669 2431 922 
Q 2431 1156 2273 1281 
Q 2116 1406 1581 1522 
L 1381 1569 
Q 847 1681 609 1914 
Q 372 2147 372 2553 
Q 372 3047 722 3315 
Q 1072 3584 1716 3584 
Q 2034 3584 2315 3537 
Q 2597 3491 2834 3397 
z
" transform="scale(0.015625)"/>
      <path id="DejaVuSans-4f" d="M 2522 4238 
Q 1834 4238 1429 3725 
Q 1025 3213 1025 2328 
Q 1025 1447 1429 934 
Q 1834 422 2522 422 
Q 3209 422 3611 934 
Q 4013 1447 4013 2328 
Q 4013 3213 3611 3725 
Q 3209 4238 2522 4238 
z
M 2522 4750 
Q 3503 4750 4090 4092 
Q 4678 3434 4678 2328 
Q 4678 1225 4090 567 
Q 3503 -91 2522 -91 
Q 1538 -91 948 565 
Q 359 1222 359 2328 
Q 359 3434 948 4092 
Q 1538 4750 2522 4750 
z
" transform="scale(0.015625)"/>
      <path id="DejaVuSans-76" d="M 191 3500 
L 800 3500 
L 1894 563 
L 2988 3500 
L 3597 3500 
L 2284 0 
L 1503 0 
L 191 3500 
z
" transform="scale(0.015625)"/>
      <path id="DejaVuSans-72" d="M 2631 2963 
Q 2534 3019 2420 3045 
Q 2306 3072 2169 3072 
Q 1681 3072 1420 2755 
Q 1159 2438 1159 1844 
L 1159 0 
L 581 0 
L 581 3500 
L 1159 3500 
L 1159 2956 
Q 1341 3275 1631 3429 
Q 1922 3584 2338 3584 
Q 2397 3584 2469 3576 
Q 2541 3569 2628 3553 
L 2631 2963 
z
" transform="scale(0.015625)"/>
      <path id="DejaVuSans-69" d="M 603 3500 
L 1178 3500 
L 1178 0 
L 603 0 
L 603 3500 
z
M 603 4863 
L 1178 4863 
L 1178 4134 
L 603 4134 
L 603 4863 
z
" transform="scale(0.015625)"/>
     </defs>
     <use xlink:href="#DejaVuSans-54"/>
     <use xlink:href="#DejaVuSans-6f" x="44.083984"/>
     <use xlink:href="#DejaVuSans-74" x="105.265625"/>
     <use xlink:href="#DejaVuSans-61" x="144.474609"/>
     <use xlink:href="#DejaVuSans-6c" x="205.753906"/>
     <use xlink:href="#DejaVuSans-20" x="233.537109"/>
     <use xlink:href="#DejaVuSans-53" x="265.324219"/>
     <use xlink:href="#DejaVuSans-61" x="328.800781"/>
     <use xlink:href="#DejaVuSans-6c" x="390.080078"/>
     <use xlink:href="#DejaVuSans-65" x="417.863281"/>
     <use xlink:href="#DejaVuSans-73" x="479.386719"/>
     <use xlink:href="#DejaVuSans-20" x="531.486328"/>
     <use xlink:href="#DejaVuSans-4f" x="563.273438"/>
     <use xlink:href="#DejaVuSans-76" x="641.984375"/>
     <use xlink:href="#DejaVuSans-65" x="701.164062"/>
     <use xlink:href="#DejaVuSans-72" x="762.6875"/>
     <use xlink:href="#DejaVuSans-20" x="803.800781"/>
     <use xlink:href="#DejaVuSans-54" x="835.587891"/>
     <use xlink:href="#DejaVuSans-69" x="893.546875"/>
     <use xlink:href="#DejaVuSans-6d" x="921.330078"/>
     <use xlink:href="#DejaVuSans-65" x="1018.742188"/>
    </g>
   </g>
  </g>
 </g>
 <defs>
  <clipPath id="pdab9665ea0">
   <rect x="108" y="51.84" width="669.6" height="332.64"/>
  </clipPath>
 </defs>
</svg>
