<?xml version="1.0" encoding="utf-8" standalone="no"?>
<!DOCTYPE svg PUBLIC "-//W3C//DTD SVG 1.1//EN"
  "http://www.w3.org/Graphics/SVG/1.1/DTD/svg11.dtd">
<svg xmlns:xlink="http://www.w3.org/1999/xlink" width="864pt" height="432pt" viewBox="0 0 864 432" xmlns="http://www.w3.org/2000/svg" version="1.1">
 <metadata>
  <rdf:RDF xmlns:dc="http://purl.org/dc/elements/1.1/" xmlns:cc="http://creativecommons.org/ns#" xmlns:rdf="http://www.w3.org/1999/02/22-rdf-syntax-ns#">
   <cc:Work>
    <dc:type rdf:resource="http://purl.org/dc/dcmitype/StillImage"/>
    <dc:date>2024-11-26T19:57:56.409462</dc:date>
    <dc:format>image/svg+xml</dc:format>
    <dc:creator>
     <cc:Agent>
      <dc:title>Matplotlib v3.9.2, https://matplotlib.org/</dc:title>
     </cc:Agent>
    </dc:creator>
   </cc:Work>
  </rdf:RDF>
 </metadata>
 <defs>
  <style type="text/css">*{stroke-linejoin: round; stroke-linecap: butt}</style>
 </defs>
 <g id="figure_1">
  <g id="patch_1">
   <path d="M 0 432 
L 864 432 
L 864 0 
L 0 0 
z
" style="fill: #ffffff"/>
  </g>
  <g id="axes_1">
   <g id="patch_2">
    <path d="M 108 384.48 
L 777.6 384.48 
L 777.6 51.84 
L 108 51.84 
z
" style="fill: #ffffff"/>
   </g>
   <g id="matplotlib.axis_1">
    <g id="xtick_1">
     <g id="line2d_1">
      <path d="M 138.436364 384.48 
L 138.436364 51.84 
" clip-path="url(#pf64579591b)" style="fill: none; stroke: #b0b0b0; stroke-width: 0.8; stroke-linecap: square"/>
     </g>
     <g id="line2d_2">
      <defs>
       <path id="m84d7beb56d" d="M 0 0 
L 0 3.5 
" style="stroke: #000000; stroke-width: 0.8"/>
      </defs>
      <g>
       <use xlink:href="#m84d7beb56d" x="138.436364" y="384.48" style="stroke: #000000; stroke-width: 0.8"/>
      </g>
     </g>
     <g id="text_1">
      <!-- 2021-01 -->
      <g transform="translate(117.544957 399.078438) scale(0.1 -0.1)">
       <defs>
        <path id="DejaVuSans-32" d="M 1228 531 
L 3431 531 
L 3431 0 
L 469 0 
L 469 531 
Q 828 903 1448 1529 
Q 2069 2156 2228 2338 
Q 2531 2678 2651 2914 
Q 2772 3150 2772 3378 
Q 2772 3750 2511 3984 
Q 2250 4219 1831 4219 
Q 1534 4219 1204 4116 
Q 875 4013 500 3803 
L 500 4441 
Q 881 4594 1212 4672 
Q 1544 4750 1819 4750 
Q 2544 4750 2975 4387 
Q 3406 4025 3406 3419 
Q 3406 3131 3298 2873 
Q 3191 2616 2906 2266 
Q 2828 2175 2409 1742 
Q 1991 1309 1228 531 
z
" transform="scale(0.015625)"/>
        <path id="DejaVuSans-30" d="M 2034 4250 
Q 1547 4250 1301 3770 
Q 1056 3291 1056 2328 
Q 1056 1369 1301 889 
Q 1547 409 2034 409 
Q 2525 409 2770 889 
Q 3016 1369 3016 2328 
Q 3016 3291 2770 3770 
Q 2525 4250 2034 4250 
z
M 2034 4750 
Q 2819 4750 3233 4129 
Q 3647 3509 3647 2328 
Q 3647 1150 3233 529 
Q 2819 -91 2034 -91 
Q 1250 -91 836 529 
Q 422 1150 422 2328 
Q 422 3509 836 4129 
Q 1250 4750 2034 4750 
z
" transform="scale(0.015625)"/>
        <path id="DejaVuSans-31" d="M 794 531 
L 1825 531 
L 1825 4091 
L 703 3866 
L 703 4441 
L 1819 4666 
L 2450 4666 
L 2450 531 
L 3481 531 
L 3481 0 
L 794 0 
L 794 531 
z
" transform="scale(0.015625)"/>
        <path id="DejaVuSans-2d" d="M 313 2009 
L 1997 2009 
L 1997 1497 
L 313 1497 
L 313 2009 
z
" transform="scale(0.015625)"/>
       </defs>
       <use xlink:href="#DejaVuSans-32"/>
       <use xlink:href="#DejaVuSans-30" x="63.623047"/>
       <use xlink:href="#DejaVuSans-32" x="127.246094"/>
       <use xlink:href="#DejaVuSans-31" x="190.869141"/>
       <use xlink:href="#DejaVuSans-2d" x="254.492188"/>
       <use xlink:href="#DejaVuSans-30" x="290.576172"/>
       <use xlink:href="#DejaVuSans-31" x="354.199219"/>
      </g>
     </g>
    </g>
    <g id="xtick_2">
     <g id="line2d_3">
      <path d="M 215.755407 384.48 
L 215.755407 51.84 
" clip-path="url(#pf64579591b)" style="fill: none; stroke: #b0b0b0; stroke-width: 0.8; stroke-linecap: square"/>
     </g>
     <g id="line2d_4">
      <g>
       <use xlink:href="#m84d7beb56d" x="215.755407" y="384.48" style="stroke: #000000; stroke-width: 0.8"/>
      </g>
     </g>
     <g id="text_2">
      <!-- 2021-07 -->
      <g transform="translate(194.864 399.078438) scale(0.1 -0.1)">
       <defs>
        <path id="DejaVuSans-37" d="M 525 4666 
L 3525 4666 
L 3525 4397 
L 1831 0 
L 1172 0 
L 2766 4134 
L 525 4134 
L 525 4666 
z
" transform="scale(0.015625)"/>
       </defs>
       <use xlink:href="#DejaVuSans-32"/>
       <use xlink:href="#DejaVuSans-30" x="63.623047"/>
       <use xlink:href="#DejaVuSans-32" x="127.246094"/>
       <use xlink:href="#DejaVuSans-31" x="190.869141"/>
       <use xlink:href="#DejaVuSans-2d" x="254.492188"/>
       <use xlink:href="#DejaVuSans-30" x="290.576172"/>
       <use xlink:href="#DejaVuSans-37" x="354.199219"/>
      </g>
     </g>
    </g>
    <g id="xtick_3">
     <g id="line2d_5">
      <path d="M 294.355981 384.48 
L 294.355981 51.84 
" clip-path="url(#pf64579591b)" style="fill: none; stroke: #b0b0b0; stroke-width: 0.8; stroke-linecap: square"/>
     </g>
     <g id="line2d_6">
      <g>
       <use xlink:href="#m84d7beb56d" x="294.355981" y="384.48" style="stroke: #000000; stroke-width: 0.8"/>
      </g>
     </g>
     <g id="text_3">
      <!-- 2022-01 -->
      <g transform="translate(273.464575 399.078438) scale(0.1 -0.1)">
       <use xlink:href="#DejaVuSans-32"/>
       <use xlink:href="#DejaVuSans-30" x="63.623047"/>
       <use xlink:href="#DejaVuSans-32" x="127.246094"/>
       <use xlink:href="#DejaVuSans-32" x="190.869141"/>
       <use xlink:href="#DejaVuSans-2d" x="254.492188"/>
       <use xlink:href="#DejaVuSans-30" x="290.576172"/>
       <use xlink:href="#DejaVuSans-31" x="354.199219"/>
      </g>
     </g>
    </g>
    <g id="xtick_4">
     <g id="line2d_7">
      <path d="M 371.675024 384.48 
L 371.675024 51.84 
" clip-path="url(#pf64579591b)" style="fill: none; stroke: #b0b0b0; stroke-width: 0.8; stroke-linecap: square"/>
     </g>
     <g id="line2d_8">
      <g>
       <use xlink:href="#m84d7beb56d" x="371.675024" y="384.48" style="stroke: #000000; stroke-width: 0.8"/>
      </g>
     </g>
     <g id="text_4">
      <!-- 2022-07 -->
      <g transform="translate(350.783618 399.078438) scale(0.1 -0.1)">
       <use xlink:href="#DejaVuSans-32"/>
       <use xlink:href="#DejaVuSans-30" x="63.623047"/>
       <use xlink:href="#DejaVuSans-32" x="127.246094"/>
       <use xlink:href="#DejaVuSans-32" x="190.869141"/>
       <use xlink:href="#DejaVuSans-2d" x="254.492188"/>
       <use xlink:href="#DejaVuSans-30" x="290.576172"/>
       <use xlink:href="#DejaVuSans-37" x="354.199219"/>
      </g>
     </g>
    </g>
    <g id="xtick_5">
     <g id="line2d_9">
      <path d="M 450.275598 384.48 
L 450.275598 51.84 
" clip-path="url(#pf64579591b)" style="fill: none; stroke: #b0b0b0; stroke-width: 0.8; stroke-linecap: square"/>
     </g>
     <g id="line2d_10">
      <g>
       <use xlink:href="#m84d7beb56d" x="450.275598" y="384.48" style="stroke: #000000; stroke-width: 0.8"/>
      </g>
     </g>
     <g id="text_5">
      <!-- 2023-01 -->
      <g transform="translate(429.384192 399.078438) scale(0.1 -0.1)">
       <defs>
        <path id="DejaVuSans-33" d="M 2597 2516 
Q 3050 2419 3304 2112 
Q 3559 1806 3559 1356 
Q 3559 666 3084 287 
Q 2609 -91 1734 -91 
Q 1441 -91 1130 -33 
Q 819 25 488 141 
L 488 750 
Q 750 597 1062 519 
Q 1375 441 1716 441 
Q 2309 441 2620 675 
Q 2931 909 2931 1356 
Q 2931 1769 2642 2001 
Q 2353 2234 1838 2234 
L 1294 2234 
L 1294 2753 
L 1863 2753 
Q 2328 2753 2575 2939 
Q 2822 3125 2822 3475 
Q 2822 3834 2567 4026 
Q 2313 4219 1838 4219 
Q 1578 4219 1281 4162 
Q 984 4106 628 3988 
L 628 4550 
Q 988 4650 1302 4700 
Q 1616 4750 1894 4750 
Q 2613 4750 3031 4423 
Q 3450 4097 3450 3541 
Q 3450 3153 3228 2886 
Q 3006 2619 2597 2516 
z
" transform="scale(0.015625)"/>
       </defs>
       <use xlink:href="#DejaVuSans-32"/>
       <use xlink:href="#DejaVuSans-30" x="63.623047"/>
       <use xlink:href="#DejaVuSans-32" x="127.246094"/>
       <use xlink:href="#DejaVuSans-33" x="190.869141"/>
       <use xlink:href="#DejaVuSans-2d" x="254.492188"/>
       <use xlink:href="#DejaVuSans-30" x="290.576172"/>
       <use xlink:href="#DejaVuSans-31" x="354.199219"/>
      </g>
     </g>
    </g>
    <g id="xtick_6">
     <g id="line2d_11">
      <path d="M 527.594641 384.48 
L 527.594641 51.84 
" clip-path="url(#pf64579591b)" style="fill: none; stroke: #b0b0b0; stroke-width: 0.8; stroke-linecap: square"/>
     </g>
     <g id="line2d_12">
      <g>
       <use xlink:href="#m84d7beb56d" x="527.594641" y="384.48" style="stroke: #000000; stroke-width: 0.8"/>
      </g>
     </g>
     <g id="text_6">
      <!-- 2023-07 -->
      <g transform="translate(506.703235 399.078438) scale(0.1 -0.1)">
       <use xlink:href="#DejaVuSans-32"/>
       <use xlink:href="#DejaVuSans-30" x="63.623047"/>
       <use xlink:href="#DejaVuSans-32" x="127.246094"/>
       <use xlink:href="#DejaVuSans-33" x="190.869141"/>
       <use xlink:href="#DejaVuSans-2d" x="254.492188"/>
       <use xlink:href="#DejaVuSans-30" x="290.576172"/>
       <use xlink:href="#DejaVuSans-37" x="354.199219"/>
      </g>
     </g>
    </g>
    <g id="xtick_7">
     <g id="line2d_13">
      <path d="M 606.195215 384.48 
L 606.195215 51.84 
" clip-path="url(#pf64579591b)" style="fill: none; stroke: #b0b0b0; stroke-width: 0.8; stroke-linecap: square"/>
     </g>
     <g id="line2d_14">
      <g>
       <use xlink:href="#m84d7beb56d" x="606.195215" y="384.48" style="stroke: #000000; stroke-width: 0.8"/>
      </g>
     </g>
     <g id="text_7">
      <!-- 2024-01 -->
      <g transform="translate(585.303809 399.078438) scale(0.1 -0.1)">
       <defs>
        <path id="DejaVuSans-34" d="M 2419 4116 
L 825 1625 
L 2419 1625 
L 2419 4116 
z
M 2253 4666 
L 3047 4666 
L 3047 1625 
L 3713 1625 
L 3713 1100 
L 3047 1100 
L 3047 0 
L 2419 0 
L 2419 1100 
L 313 1100 
L 313 1709 
L 2253 4666 
z
" transform="scale(0.015625)"/>
       </defs>
       <use xlink:href="#DejaVuSans-32"/>
       <use xlink:href="#DejaVuSans-30" x="63.623047"/>
       <use xlink:href="#DejaVuSans-32" x="127.246094"/>
       <use xlink:href="#DejaVuSans-34" x="190.869141"/>
       <use xlink:href="#DejaVuSans-2d" x="254.492188"/>
       <use xlink:href="#DejaVuSans-30" x="290.576172"/>
       <use xlink:href="#DejaVuSans-31" x="354.199219"/>
      </g>
     </g>
    </g>
    <g id="xtick_8">
     <g id="line2d_15">
      <path d="M 683.941435 384.48 
L 683.941435 51.84 
" clip-path="url(#pf64579591b)" style="fill: none; stroke: #b0b0b0; stroke-width: 0.8; stroke-linecap: square"/>
     </g>
     <g id="line2d_16">
      <g>
       <use xlink:href="#m84d7beb56d" x="683.941435" y="384.48" style="stroke: #000000; stroke-width: 0.8"/>
      </g>
     </g>
     <g id="text_8">
      <!-- 2024-07 -->
      <g transform="translate(663.050029 399.078438) scale(0.1 -0.1)">
       <use xlink:href="#DejaVuSans-32"/>
       <use xlink:href="#DejaVuSans-30" x="63.623047"/>
       <use xlink:href="#DejaVuSans-32" x="127.246094"/>
       <use xlink:href="#DejaVuSans-34" x="190.869141"/>
       <use xlink:href="#DejaVuSans-2d" x="254.492188"/>
       <use xlink:href="#DejaVuSans-30" x="290.576172"/>
       <use xlink:href="#DejaVuSans-37" x="354.199219"/>
      </g>
     </g>
    </g>
    <g id="xtick_9">
     <g id="line2d_17">
      <path d="M 762.54201 384.48 
L 762.54201 51.84 
" clip-path="url(#pf64579591b)" style="fill: none; stroke: #b0b0b0; stroke-width: 0.8; stroke-linecap: square"/>
     </g>
     <g id="line2d_18">
      <g>
       <use xlink:href="#m84d7beb56d" x="762.54201" y="384.48" style="stroke: #000000; stroke-width: 0.8"/>
      </g>
     </g>
     <g id="text_9">
      <!-- 2025-01 -->
      <g transform="translate(741.650603 399.078438) scale(0.1 -0.1)">
       <defs>
        <path id="DejaVuSans-35" d="M 691 4666 
L 3169 4666 
L 3169 4134 
L 1269 4134 
L 1269 2991 
Q 1406 3038 1543 3061 
Q 1681 3084 1819 3084 
Q 2600 3084 3056 2656 
Q 3513 2228 3513 1497 
Q 3513 744 3044 326 
Q 2575 -91 1722 -91 
Q 1428 -91 1123 -41 
Q 819 9 494 109 
L 494 744 
Q 775 591 1075 516 
Q 1375 441 1709 441 
Q 2250 441 2565 725 
Q 2881 1009 2881 1497 
Q 2881 1984 2565 2268 
Q 2250 2553 1709 2553 
Q 1456 2553 1204 2497 
Q 953 2441 691 2322 
L 691 4666 
z
" transform="scale(0.015625)"/>
       </defs>
       <use xlink:href="#DejaVuSans-32"/>
       <use xlink:href="#DejaVuSans-30" x="63.623047"/>
       <use xlink:href="#DejaVuSans-32" x="127.246094"/>
       <use xlink:href="#DejaVuSans-35" x="190.869141"/>
       <use xlink:href="#DejaVuSans-2d" x="254.492188"/>
       <use xlink:href="#DejaVuSans-30" x="290.576172"/>
       <use xlink:href="#DejaVuSans-31" x="354.199219"/>
      </g>
     </g>
    </g>
    <g id="text_10">
     <!-- Date -->
     <g transform="translate(430.849219 412.756563) scale(0.1 -0.1)">
      <defs>
       <path id="DejaVuSans-44" d="M 1259 4147 
L 1259 519 
L 2022 519 
Q 2988 519 3436 956 
Q 3884 1394 3884 2338 
Q 3884 3275 3436 3711 
Q 2988 4147 2022 4147 
L 1259 4147 
z
M 628 4666 
L 1925 4666 
Q 3281 4666 3915 4102 
Q 4550 3538 4550 2338 
Q 4550 1131 3912 565 
Q 3275 0 1925 0 
L 628 0 
L 628 4666 
z
" transform="scale(0.015625)"/>
       <path id="DejaVuSans-61" d="M 2194 1759 
Q 1497 1759 1228 1600 
Q 959 1441 959 1056 
Q 959 750 1161 570 
Q 1363 391 1709 391 
Q 2188 391 2477 730 
Q 2766 1069 2766 1631 
L 2766 1759 
L 2194 1759 
z
M 3341 1997 
L 3341 0 
L 2766 0 
L 2766 531 
Q 2569 213 2275 61 
Q 1981 -91 1556 -91 
Q 1019 -91 701 211 
Q 384 513 384 1019 
Q 384 1609 779 1909 
Q 1175 2209 1959 2209 
L 2766 2209 
L 2766 2266 
Q 2766 2663 2505 2880 
Q 2244 3097 1772 3097 
Q 1472 3097 1187 3025 
Q 903 2953 641 2809 
L 641 3341 
Q 956 3463 1253 3523 
Q 1550 3584 1831 3584 
Q 2591 3584 2966 3190 
Q 3341 2797 3341 1997 
z
" transform="scale(0.015625)"/>
       <path id="DejaVuSans-74" d="M 1172 4494 
L 1172 3500 
L 2356 3500 
L 2356 3053 
L 1172 3053 
L 1172 1153 
Q 1172 725 1289 603 
Q 1406 481 1766 481 
L 2356 481 
L 2356 0 
L 1766 0 
Q 1100 0 847 248 
Q 594 497 594 1153 
L 594 3053 
L 172 3053 
L 172 3500 
L 594 3500 
L 594 4494 
L 1172 4494 
z
" transform="scale(0.015625)"/>
       <path id="DejaVuSans-65" d="M 3597 1894 
L 3597 1613 
L 953 1613 
Q 991 1019 1311 708 
Q 1631 397 2203 397 
Q 2534 397 2845 478 
Q 3156 559 3463 722 
L 3463 178 
Q 3153 47 2828 -22 
Q 2503 -91 2169 -91 
Q 1331 -91 842 396 
Q 353 884 353 1716 
Q 353 2575 817 3079 
Q 1281 3584 2069 3584 
Q 2775 3584 3186 3129 
Q 3597 2675 3597 1894 
z
M 3022 2063 
Q 3016 2534 2758 2815 
Q 2500 3097 2075 3097 
Q 1594 3097 1305 2825 
Q 1016 2553 972 2059 
L 3022 2063 
z
" transform="scale(0.015625)"/>
      </defs>
      <use xlink:href="#DejaVuSans-44"/>
      <use xlink:href="#DejaVuSans-61" x="77.001953"/>
      <use xlink:href="#DejaVuSans-74" x="138.28125"/>
      <use xlink:href="#DejaVuSans-65" x="177.490234"/>
     </g>
    </g>
   </g>
   <g id="matplotlib.axis_2">
    <g id="ytick_1">
     <g id="line2d_19">
      <path d="M 108 369.380987 
L 777.6 369.380987 
" clip-path="url(#pf64579591b)" style="fill: none; stroke: #b0b0b0; stroke-width: 0.8; stroke-linecap: square"/>
     </g>
     <g id="line2d_20">
      <defs>
       <path id="m7f1f1016e0" d="M 0 0 
L -3.5 0 
" style="stroke: #000000; stroke-width: 0.8"/>
      </defs>
      <g>
       <use xlink:href="#m7f1f1016e0" x="108" y="369.380987" style="stroke: #000000; stroke-width: 0.8"/>
      </g>
     </g>
     <g id="text_11">
      <!-- 0 -->
      <g transform="translate(94.6375 373.180206) scale(0.1 -0.1)">
       <use xlink:href="#DejaVuSans-30"/>
      </g>
     </g>
    </g>
    <g id="ytick_2">
     <g id="line2d_21">
      <path d="M 108 327.406056 
L 777.6 327.406056 
" clip-path="url(#pf64579591b)" style="fill: none; stroke: #b0b0b0; stroke-width: 0.8; stroke-linecap: square"/>
     </g>
     <g id="line2d_22">
      <g>
       <use xlink:href="#m7f1f1016e0" x="108" y="327.406056" style="stroke: #000000; stroke-width: 0.8"/>
      </g>
     </g>
     <g id="text_12">
      <!-- 10000 -->
      <g transform="translate(69.1875 331.205275) scale(0.1 -0.1)">
       <use xlink:href="#DejaVuSans-31"/>
       <use xlink:href="#DejaVuSans-30" x="63.623047"/>
       <use xlink:href="#DejaVuSans-30" x="127.246094"/>
       <use xlink:href="#DejaVuSans-30" x="190.869141"/>
       <use xlink:href="#DejaVuSans-30" x="254.492188"/>
      </g>
     </g>
    </g>
    <g id="ytick_3">
     <g id="line2d_23">
      <path d="M 108 285.431124 
L 777.6 285.431124 
" clip-path="url(#pf64579591b)" style="fill: none; stroke: #b0b0b0; stroke-width: 0.8; stroke-linecap: square"/>
     </g>
     <g id="line2d_24">
      <g>
       <use xlink:href="#m7f1f1016e0" x="108" y="285.431124" style="stroke: #000000; stroke-width: 0.8"/>
      </g>
     </g>
     <g id="text_13">
      <!-- 20000 -->
      <g transform="translate(69.1875 289.230343) scale(0.1 -0.1)">
       <use xlink:href="#DejaVuSans-32"/>
       <use xlink:href="#DejaVuSans-30" x="63.623047"/>
       <use xlink:href="#DejaVuSans-30" x="127.246094"/>
       <use xlink:href="#DejaVuSans-30" x="190.869141"/>
       <use xlink:href="#DejaVuSans-30" x="254.492188"/>
      </g>
     </g>
    </g>
    <g id="ytick_4">
     <g id="line2d_25">
      <path d="M 108 243.456193 
L 777.6 243.456193 
" clip-path="url(#pf64579591b)" style="fill: none; stroke: #b0b0b0; stroke-width: 0.8; stroke-linecap: square"/>
     </g>
     <g id="line2d_26">
      <g>
       <use xlink:href="#m7f1f1016e0" x="108" y="243.456193" style="stroke: #000000; stroke-width: 0.8"/>
      </g>
     </g>
     <g id="text_14">
      <!-- 30000 -->
      <g transform="translate(69.1875 247.255411) scale(0.1 -0.1)">
       <use xlink:href="#DejaVuSans-33"/>
       <use xlink:href="#DejaVuSans-30" x="63.623047"/>
       <use xlink:href="#DejaVuSans-30" x="127.246094"/>
       <use xlink:href="#DejaVuSans-30" x="190.869141"/>
       <use xlink:href="#DejaVuSans-30" x="254.492188"/>
      </g>
     </g>
    </g>
    <g id="ytick_5">
     <g id="line2d_27">
      <path d="M 108 201.481261 
L 777.6 201.481261 
" clip-path="url(#pf64579591b)" style="fill: none; stroke: #b0b0b0; stroke-width: 0.8; stroke-linecap: square"/>
     </g>
     <g id="line2d_28">
      <g>
       <use xlink:href="#m7f1f1016e0" x="108" y="201.481261" style="stroke: #000000; stroke-width: 0.8"/>
      </g>
     </g>
     <g id="text_15">
      <!-- 40000 -->
      <g transform="translate(69.1875 205.28048) scale(0.1 -0.1)">
       <use xlink:href="#DejaVuSans-34"/>
       <use xlink:href="#DejaVuSans-30" x="63.623047"/>
       <use xlink:href="#DejaVuSans-30" x="127.246094"/>
       <use xlink:href="#DejaVuSans-30" x="190.869141"/>
       <use xlink:href="#DejaVuSans-30" x="254.492188"/>
      </g>
     </g>
    </g>
    <g id="ytick_6">
     <g id="line2d_29">
      <path d="M 108 159.506329 
L 777.6 159.506329 
" clip-path="url(#pf64579591b)" style="fill: none; stroke: #b0b0b0; stroke-width: 0.8; stroke-linecap: square"/>
     </g>
     <g id="line2d_30">
      <g>
       <use xlink:href="#m7f1f1016e0" x="108" y="159.506329" style="stroke: #000000; stroke-width: 0.8"/>
      </g>
     </g>
     <g id="text_16">
      <!-- 50000 -->
      <g transform="translate(69.1875 163.305548) scale(0.1 -0.1)">
       <use xlink:href="#DejaVuSans-35"/>
       <use xlink:href="#DejaVuSans-30" x="63.623047"/>
       <use xlink:href="#DejaVuSans-30" x="127.246094"/>
       <use xlink:href="#DejaVuSans-30" x="190.869141"/>
       <use xlink:href="#DejaVuSans-30" x="254.492188"/>
      </g>
     </g>
    </g>
    <g id="ytick_7">
     <g id="line2d_31">
      <path d="M 108 117.531398 
L 777.6 117.531398 
" clip-path="url(#pf64579591b)" style="fill: none; stroke: #b0b0b0; stroke-width: 0.8; stroke-linecap: square"/>
     </g>
     <g id="line2d_32">
      <g>
       <use xlink:href="#m7f1f1016e0" x="108" y="117.531398" style="stroke: #000000; stroke-width: 0.8"/>
      </g>
     </g>
     <g id="text_17">
      <!-- 60000 -->
      <g transform="translate(69.1875 121.330616) scale(0.1 -0.1)">
       <defs>
        <path id="DejaVuSans-36" d="M 2113 2584 
Q 1688 2584 1439 2293 
Q 1191 2003 1191 1497 
Q 1191 994 1439 701 
Q 1688 409 2113 409 
Q 2538 409 2786 701 
Q 3034 994 3034 1497 
Q 3034 2003 2786 2293 
Q 2538 2584 2113 2584 
z
M 3366 4563 
L 3366 3988 
Q 3128 4100 2886 4159 
Q 2644 4219 2406 4219 
Q 1781 4219 1451 3797 
Q 1122 3375 1075 2522 
Q 1259 2794 1537 2939 
Q 1816 3084 2150 3084 
Q 2853 3084 3261 2657 
Q 3669 2231 3669 1497 
Q 3669 778 3244 343 
Q 2819 -91 2113 -91 
Q 1303 -91 875 529 
Q 447 1150 447 2328 
Q 447 3434 972 4092 
Q 1497 4750 2381 4750 
Q 2619 4750 2861 4703 
Q 3103 4656 3366 4563 
z
" transform="scale(0.015625)"/>
       </defs>
       <use xlink:href="#DejaVuSans-36"/>
       <use xlink:href="#DejaVuSans-30" x="63.623047"/>
       <use xlink:href="#DejaVuSans-30" x="127.246094"/>
       <use xlink:href="#DejaVuSans-30" x="190.869141"/>
       <use xlink:href="#DejaVuSans-30" x="254.492188"/>
      </g>
     </g>
    </g>
    <g id="ytick_8">
     <g id="line2d_33">
      <path d="M 108 75.556466 
L 777.6 75.556466 
" clip-path="url(#pf64579591b)" style="fill: none; stroke: #b0b0b0; stroke-width: 0.8; stroke-linecap: square"/>
     </g>
     <g id="line2d_34">
      <g>
       <use xlink:href="#m7f1f1016e0" x="108" y="75.556466" style="stroke: #000000; stroke-width: 0.8"/>
      </g>
     </g>
     <g id="text_18">
      <!-- 70000 -->
      <g transform="translate(69.1875 79.355685) scale(0.1 -0.1)">
       <use xlink:href="#DejaVuSans-37"/>
       <use xlink:href="#DejaVuSans-30" x="63.623047"/>
       <use xlink:href="#DejaVuSans-30" x="127.246094"/>
       <use xlink:href="#DejaVuSans-30" x="190.869141"/>
       <use xlink:href="#DejaVuSans-30" x="254.492188"/>
      </g>
     </g>
    </g>
    <g id="text_19">
     <!-- Total Amount -->
     <g transform="translate(63.107812 251.073281) rotate(-90) scale(0.1 -0.1)">
      <defs>
       <path id="DejaVuSans-54" d="M -19 4666 
L 3928 4666 
L 3928 4134 
L 2272 4134 
L 2272 0 
L 1638 0 
L 1638 4134 
L -19 4134 
L -19 4666 
z
" transform="scale(0.015625)"/>
       <path id="DejaVuSans-6f" d="M 1959 3097 
Q 1497 3097 1228 2736 
Q 959 2375 959 1747 
Q 959 1119 1226 758 
Q 1494 397 1959 397 
Q 2419 397 2687 759 
Q 2956 1122 2956 1747 
Q 2956 2369 2687 2733 
Q 2419 3097 1959 3097 
z
M 1959 3584 
Q 2709 3584 3137 3096 
Q 3566 2609 3566 1747 
Q 3566 888 3137 398 
Q 2709 -91 1959 -91 
Q 1206 -91 779 398 
Q 353 888 353 1747 
Q 353 2609 779 3096 
Q 1206 3584 1959 3584 
z
" transform="scale(0.015625)"/>
       <path id="DejaVuSans-6c" d="M 603 4863 
L 1178 4863 
L 1178 0 
L 603 0 
L 603 4863 
z
" transform="scale(0.015625)"/>
       <path id="DejaVuSans-20" transform="scale(0.015625)"/>
       <path id="DejaVuSans-41" d="M 2188 4044 
L 1331 1722 
L 3047 1722 
L 2188 4044 
z
M 1831 4666 
L 2547 4666 
L 4325 0 
L 3669 0 
L 3244 1197 
L 1141 1197 
L 716 0 
L 50 0 
L 1831 4666 
z
" transform="scale(0.015625)"/>
       <path id="DejaVuSans-6d" d="M 3328 2828 
Q 3544 3216 3844 3400 
Q 4144 3584 4550 3584 
Q 5097 3584 5394 3201 
Q 5691 2819 5691 2113 
L 5691 0 
L 5113 0 
L 5113 2094 
Q 5113 2597 4934 2840 
Q 4756 3084 4391 3084 
Q 3944 3084 3684 2787 
Q 3425 2491 3425 1978 
L 3425 0 
L 2847 0 
L 2847 2094 
Q 2847 2600 2669 2842 
Q 2491 3084 2119 3084 
Q 1678 3084 1418 2786 
Q 1159 2488 1159 1978 
L 1159 0 
L 581 0 
L 581 3500 
L 1159 3500 
L 1159 2956 
Q 1356 3278 1631 3431 
Q 1906 3584 2284 3584 
Q 2666 3584 2933 3390 
Q 3200 3197 3328 2828 
z
" transform="scale(0.015625)"/>
       <path id="DejaVuSans-75" d="M 544 1381 
L 544 3500 
L 1119 3500 
L 1119 1403 
Q 1119 906 1312 657 
Q 1506 409 1894 409 
Q 2359 409 2629 706 
Q 2900 1003 2900 1516 
L 2900 3500 
L 3475 3500 
L 3475 0 
L 2900 0 
L 2900 538 
Q 2691 219 2414 64 
Q 2138 -91 1772 -91 
Q 1169 -91 856 284 
Q 544 659 544 1381 
z
M 1991 3584 
L 1991 3584 
z
" transform="scale(0.015625)"/>
       <path id="DejaVuSans-6e" d="M 3513 2113 
L 3513 0 
L 2938 0 
L 2938 2094 
Q 2938 2591 2744 2837 
Q 2550 3084 2163 3084 
Q 1697 3084 1428 2787 
Q 1159 2491 1159 1978 
L 1159 0 
L 581 0 
L 581 3500 
L 1159 3500 
L 1159 2956 
Q 1366 3272 1645 3428 
Q 1925 3584 2291 3584 
Q 2894 3584 3203 3211 
Q 3513 2838 3513 2113 
z
" transform="scale(0.015625)"/>
      </defs>
      <use xlink:href="#DejaVuSans-54"/>
      <use xlink:href="#DejaVuSans-6f" x="44.083984"/>
      <use xlink:href="#DejaVuSans-74" x="105.265625"/>
      <use xlink:href="#DejaVuSans-61" x="144.474609"/>
      <use xlink:href="#DejaVuSans-6c" x="205.753906"/>
      <use xlink:href="#DejaVuSans-20" x="233.537109"/>
      <use xlink:href="#DejaVuSans-41" x="265.324219"/>
      <use xlink:href="#DejaVuSans-6d" x="333.732422"/>
      <use xlink:href="#DejaVuSans-6f" x="431.144531"/>
      <use xlink:href="#DejaVuSans-75" x="492.326172"/>
      <use xlink:href="#DejaVuSans-6e" x="555.705078"/>
      <use xlink:href="#DejaVuSans-74" x="619.083984"/>
     </g>
    </g>
   </g>
   <g id="line2d_35">
    <path d="M 138.436364 344.447878 
L 139.290718 320.954509 
L 140.572249 335.045493 
L 140.999426 362.455124 
L 141.426603 367.75236 
L 142.280957 368.415564 
L 143.562488 345.912803 
L 144.416842 346.0849 
L 145.271196 366.707184 
L 145.698373 368.10495 
L 146.12555 364.898065 
L 146.552727 362.874873 
L 147.407081 364.323008 
L 147.834258 354.798896 
L 148.261435 369.082965 
L 148.688612 367.395573 
L 149.542967 367.156316 
L 149.970144 357.073938 
L 150.397321 361.749945 
L 150.824498 347.281186 
L 151.251675 361.179086 
L 152.533206 360.276625 
L 152.960383 354.521862 
L 153.814737 361.74155 
L 154.241914 367.88668 
L 155.523445 351.113497 
L 156.804976 365.855093 
L 157.65933 352.926814 
L 158.086507 366.358792 
L 158.513684 360.666992 
L 159.368038 364.008196 
L 160.222392 366.568667 
L 160.649569 359.970208 
L 161.076746 366.673604 
L 161.503923 365.687193 
L 161.9311 344.342941 
L 162.358278 368.260257 
L 164.494163 359.390954 
L 164.92134 368.352602 
L 165.775694 357.921831 
L 166.630048 368.306429 
L 167.057225 369.36 
L 167.911579 368.541489 
L 168.765933 364.77214 
L 170.474641 368.927658 
L 170.901818 356.389746 
L 171.328995 359.974405 
L 171.756172 359.260831 
L 172.610526 337.715099 
L 173.037703 363.806717 
L 174.319234 322.322892 
L 174.746411 367.555078 
L 175.173589 360.293415 
L 175.600766 337.001525 
L 176.027943 365.897068 
L 176.882297 362.664998 
L 177.309474 175.708653 
L 177.736651 332.988722 
L 179.018182 355.751727 
L 179.445359 368.768153 
L 179.872536 346.311565 
L 180.299713 357.724549 
L 181.154067 361.036371 
L 182.862775 361.237851 
L 183.289952 364.474118 
L 186.280191 367.030391 
L 186.707368 369.011608 
L 187.134545 344.351336 
L 187.561722 366.148918 
L 187.9889 359.369966 
L 188.843254 341.211611 
L 189.697608 331.771449 
L 190.551962 367.282241 
L 190.979139 367.98742 
L 191.406316 360.944026 
L 191.833493 369.297038 
L 192.687847 354.332974 
L 193.542201 363.827704 
L 194.823732 367.995815 
L 195.250909 357.544057 
L 195.678086 359.596631 
L 196.105263 339.473849 
L 196.53244 367.047181 
L 196.959617 353.615203 
L 198.668325 363.777334 
L 199.095502 361.313406 
L 200.377033 366.136325 
L 201.231388 309.60029 
L 202.085742 343.570602 
L 202.512919 341.51383 
L 202.940096 360.08354 
L 203.367273 361.766735 
L 203.79445 369.297038 
L 204.221627 362.169694 
L 204.648804 346.513045 
L 205.503158 328.13642 
L 205.930335 338.067688 
L 206.357512 367.76915 
L 206.784689 345.195032 
L 207.211866 366.451137 
L 207.639043 368.033592 
L 208.06622 363.609434 
L 208.493397 366.29583 
L 208.920574 352.64978 
L 209.347751 362.753146 
L 209.774928 351.323372 
L 210.202105 312.177551 
L 210.629282 357.737141 
L 211.056459 360.721559 
L 211.483636 362.832898 
L 211.910813 368.902473 
L 212.765167 348.330559 
L 213.619522 363.206475 
L 214.473876 364.910657 
L 215.32823 361.477108 
L 215.755407 356.452709 
L 216.182584 364.163503 
L 216.609761 348.960183 
L 217.036938 364.394366 
L 217.464115 348.477472 
L 217.891292 353.283601 
L 218.318469 353.237429 
L 218.745646 365.813118 
L 219.6 355.961602 
L 220.027177 364.092146 
L 220.881531 365.242259 
L 221.308708 333.853405 
L 221.735885 366.46373 
L 222.163062 359.474904 
L 222.590239 368.432354 
L 223.444593 359.504286 
L 223.87177 368.604451 
L 224.298947 367.95384 
L 224.726124 368.957041 
L 225.153301 362.933638 
L 225.580478 367.450141 
L 226.007656 355.109511 
L 226.434833 66.96 
L 227.289187 367.882482 
L 227.716364 368.541489 
L 229.425072 364.369181 
L 230.279426 369.020003 
L 230.706603 332.27095 
L 231.13378 368.839511 
L 231.560957 353.867053 
L 231.988134 365.015595 
L 232.415311 369.255063 
L 233.269665 364.134121 
L 233.696842 358.937624 
L 234.124019 365.498306 
L 234.551196 367.597053 
L 235.40555 359.441324 
L 235.832727 366.32941 
L 236.259904 354.622602 
L 236.687081 360.347982 
L 237.541435 368.751363 
L 237.968612 367.70199 
L 238.822967 357.527267 
L 239.250144 366.917059 
L 239.677321 356.234439 
L 240.104498 354.034952 
L 240.531675 350.366343 
L 242.240383 330.545781 
L 242.66756 317.533552 
L 243.521914 358.299606 
L 243.949091 367.408166 
L 244.376268 360.38576 
L 244.803445 367.61804 
L 246.084976 362.849688 
L 246.512153 358.748737 
L 247.793684 325.936933 
L 248.220861 358.72775 
L 248.648038 352.007563 
L 249.502392 367.643225 
L 250.356746 363.336597 
L 250.783923 345.253797 
L 251.2111 368.474329 
L 251.638278 362.694381 
L 252.492632 363.504497 
L 252.919809 363.1645 
L 254.20134 369.221483 
L 255.055694 337.786456 
L 255.910048 346.576007 
L 256.337225 366.073363 
L 257.191579 368.302232 
L 257.618756 363.781532 
L 258.045933 368.12174 
L 258.47311 363.29882 
L 258.900287 363.525485 
L 260.181818 365.473121 
L 261.463349 360.112923 
L 261.890526 364.97362 
L 262.317703 359.474904 
L 263.172057 358.370963 
L 263.599234 365.275839 
L 264.026411 341.585188 
L 264.453589 362.438334 
L 264.880766 368.994818 
L 265.307943 358.299606 
L 265.73512 367.743965 
L 266.162297 351.600406 
L 266.589474 363.391165 
L 267.016651 338.789657 
L 267.871005 369.297038 
L 269.152536 354.186062 
L 269.579713 361.817105 
L 270.00689 366.673604 
L 270.861244 361.258838 
L 272.142775 358.400345 
L 272.569952 353.438908 
L 272.997129 351.310779 
L 273.424306 360.801311 
L 273.851483 366.543482 
L 274.27866 363.223265 
L 274.705837 366.652617 
L 275.133014 364.192886 
L 275.560191 367.445943 
L 276.841722 358.068743 
L 278.123254 367.693595 
L 278.977608 355.302595 
L 279.404785 366.761752 
L 279.831962 365.934846 
L 281.113493 366.686197 
L 281.54067 366.568667 
L 281.967847 357.737141 
L 282.395024 359.332189 
L 283.676555 367.844705 
L 284.530909 363.36598 
L 284.958086 368.050382 
L 285.385263 367.844705 
L 285.81244 361.237851 
L 286.666794 368.982226 
L 287.093971 366.711382 
L 287.521148 367.78594 
L 287.948325 364.72177 
L 288.375502 368.562476 
L 288.802679 330.142821 
L 289.229856 362.547469 
L 290.511388 368.167912 
L 290.938565 356.486288 
L 291.365742 364.092146 
L 292.647273 362.564259 
L 293.501627 361.191678 
L 293.928804 347.780688 
L 294.355981 364.55387 
L 294.783158 355.126301 
L 295.210335 361.47291 
L 295.637512 362.329199 
L 296.064689 364.566463 
L 296.491866 365.846698 
L 296.919043 363.420547 
L 298.200574 367.995815 
L 299.482105 351.835466 
L 300.336459 366.975824 
L 300.763636 362.094139 
L 302.899522 347.486863 
L 303.326699 367.911865 
L 303.753876 367.051379 
L 304.60823 368.814326 
L 305.462584 367.6852 
L 305.889761 366.090153 
L 306.744115 360.440327 
L 308.025646 368.650624 
L 309.734354 363.14771 
L 310.588708 367.517301 
L 311.015885 354.379147 
L 311.870239 366.702987 
L 312.724593 368.625439 
L 314.433301 366.241263 
L 315.714833 368.793338 
L 316.14201 327.674695 
L 316.996364 353.925818 
L 317.423541 362.635616 
L 317.850718 353.7873 
L 318.705072 365.892871 
L 319.132249 347.113286 
L 319.559426 368.700994 
L 319.986603 368.352602 
L 320.41378 366.694592 
L 320.840957 369.339013 
L 321.268134 363.563262 
L 322.122488 369.213088 
L 322.549665 349.2666 
L 324.258373 360.020578 
L 325.112727 346.445885 
L 325.539904 367.907667 
L 326.394258 355.617407 
L 327.675789 365.099544 
L 328.102967 352.73373 
L 328.957321 367.882482 
L 329.384498 369.137533 
L 330.238852 334.961544 
L 330.666029 355.650987 
L 331.093206 368.05458 
L 331.94756 357.267022 
L 332.801914 350.383133 
L 333.229091 362.539074 
L 333.656268 365.624231 
L 334.083445 365.074359 
L 334.510622 367.88668 
L 335.364976 356.125304 
L 335.792153 360.499092 
L 336.21933 366.862492 
L 336.646507 362.434136 
L 337.500861 361.242048 
L 340.4911 362.664998 
L 341.345455 368.029395 
L 341.772632 353.468291 
L 342.199809 361.128716 
L 342.626986 354.547047 
L 343.054163 354.815686 
L 344.335694 361.783525 
L 344.762871 369.280248 
L 345.617225 366.350397 
L 346.044402 367.76915 
L 346.471579 343.47406 
L 346.898756 368.289639 
L 347.325933 356.444314 
L 347.75311 364.46992 
L 348.180287 364.99041 
L 349.034641 357.334182 
L 349.461818 363.407955 
L 349.888995 334.420067 
L 350.316172 314.578517 
L 350.743349 366.04398 
L 351.170526 360.637609 
L 351.597703 368.768153 
L 352.02488 364.700783 
L 352.879234 366.904466 
L 353.306411 363.953629 
L 353.733589 366.190893 
L 354.160766 369.36 
L 354.587943 360.247242 
L 355.442297 368.549884 
L 355.869474 366.425952 
L 357.151005 369.213088 
L 357.578182 360.356377 
L 358.005359 354.165075 
L 358.859713 355.953207 
L 359.28689 341.492843 
L 360.568421 359.852678 
L 360.995598 351.499667 
L 361.422775 360.10033 
L 361.849952 364.646215 
L 362.277129 366.702987 
L 363.131483 338.050898 
L 363.55866 365.712378 
L 363.985837 362.698578 
L 364.413014 358.673182 
L 364.840191 367.441746 
L 365.694545 356.948013 
L 366.121722 362.568456 
L 367.403254 368.520501 
L 367.830431 349.887829 
L 368.257608 357.544057 
L 368.684785 369.238273 
L 369.111962 365.099544 
L 369.539139 354.353962 
L 369.966316 301.784558 
L 370.393493 366.862492 
L 370.82067 366.589655 
L 371.247847 364.385971 
L 372.529378 368.247664 
L 372.956555 362.673393 
L 373.810909 239.426599 
L 374.665263 362.715368 
L 375.09244 342.949373 
L 375.519617 340.535814 
L 375.946794 368.436552 
L 376.373971 352.171265 
L 376.801148 364.679795 
L 377.228325 320.077233 
L 378.082679 359.231449 
L 378.509856 362.950428 
L 379.791388 363.189685 
L 380.218565 366.022993 
L 380.645742 358.173681 
L 381.072919 364.243256 
L 381.500096 354.286802 
L 381.927273 366.556075 
L 382.35445 351.550037 
L 382.781627 367.693595 
L 383.635981 365.489911 
L 384.490335 365.842501 
L 385.344689 368.898276 
L 385.771866 365.804723 
L 386.199043 368.860498 
L 387.053397 368.751363 
L 387.480574 365.779538 
L 388.762105 365.288432 
L 389.189282 358.417135 
L 389.616459 368.923461 
L 390.043636 368.163714 
L 390.470813 204.293581 
L 390.89799 366.715579 
L 392.179522 368.184702 
L 392.606699 356.410734 
L 393.033876 363.487707 
L 393.461053 366.568667 
L 394.315407 368.138529 
L 394.742584 360.440327 
L 395.596938 361.170691 
L 396.024115 363.941036 
L 397.305646 364.713375 
L 397.732823 368.986423 
L 398.16 323.133008 
L 398.587177 367.827915 
L 399.014354 351.957193 
L 399.868708 358.501085 
L 400.295885 349.673757 
L 400.723062 364.302021 
L 401.577416 369.313828 
L 402.004593 359.390954 
L 402.858947 364.46992 
L 403.713301 367.76915 
L 404.140478 365.05757 
L 405.42201 363.034378 
L 406.276364 368.906671 
L 406.703541 358.299606 
L 407.130718 360.255637 
L 407.557895 334.122045 
L 408.412249 338.546203 
L 408.839426 366.371385 
L 409.266603 364.058566 
L 409.69378 362.455124 
L 410.120957 368.205689 
L 410.548134 363.126723 
L 410.975311 363.571657 
L 411.402488 364.377576 
L 411.829665 345.153057 
L 412.256842 367.492116 
L 412.684019 361.426738 
L 413.111196 367.042984 
L 413.96555 359.835888 
L 414.392727 361.552663 
L 415.247081 346.33675 
L 415.674258 363.462522 
L 416.101435 339.545206 
L 416.955789 362.094139 
L 417.382967 366.572865 
L 417.810144 368.167912 
L 418.237321 364.218071 
L 418.664498 369.297038 
L 419.091675 367.8531 
L 420.800383 368.990621 
L 421.654737 360.457117 
L 422.081914 340.859021 
L 422.509091 366.417557 
L 422.936268 356.314191 
L 423.363445 343.18863 
L 424.217799 367.622238 
L 425.072153 365.989413 
L 425.926507 366.207683 
L 426.353684 366.073363 
L 427.208038 366.598049 
L 428.062392 363.941036 
L 428.489569 365.393369 
L 428.916746 348.939196 
L 429.343923 365.418554 
L 430.198278 366.27904 
L 431.052632 354.589022 
L 431.906986 366.316817 
L 432.334163 367.70199 
L 432.76134 364.511895 
L 433.615694 365.414356 
L 434.470048 350.303381 
L 435.751579 369.339013 
L 437.887464 350.613996 
L 438.314641 367.743965 
L 440.023349 360.188477 
L 440.450526 365.015595 
L 440.877703 366.803727 
L 441.30488 349.111293 
L 441.732057 367.215081 
L 442.159234 362.736356 
L 442.586411 362.152904 
L 444.29512 352.943604 
L 445.149474 368.12174 
L 445.576651 353.682363 
L 446.431005 363.689187 
L 446.858182 363.34919 
L 448.139713 361.401553 
L 448.56689 365.796328 
L 449.848421 341.303956 
L 450.275598 367.336808 
L 451.557129 366.539285 
L 452.411483 366.409162 
L 453.693014 364.218071 
L 454.120191 366.29583 
L 454.547368 369.30963 
L 455.401722 367.437548 
L 456.256077 363.504497 
L 456.683254 363.374375 
L 457.110431 323.594732 
L 457.537608 314.016053 
L 457.964785 368.029395 
L 458.391962 363.945234 
L 458.819139 366.409162 
L 459.246316 366.736567 
L 459.673493 369.166915 
L 460.10067 363.445732 
L 460.527847 368.805931 
L 460.955024 359.437126 
L 461.382201 368.205689 
L 461.809378 349.409315 
L 463.090909 337.882999 
L 463.518086 326.944332 
L 464.37244 364.65461 
L 465.226794 319.867358 
L 465.653971 352.784099 
L 466.081148 355.508273 
L 466.508325 366.845702 
L 466.935502 365.036582 
L 467.789856 346.40391 
L 468.217033 362.396359 
L 468.644211 366.900269 
L 469.071388 361.40575 
L 469.498565 369.082965 
L 470.352919 365.292629 
L 470.780096 369.053583 
L 471.207273 363.210673 
L 472.061627 369.10815 
L 472.488804 366.875084 
L 472.915981 326.906554 
L 473.770335 368.411367 
L 474.197512 369.116545 
L 474.624689 367.026194 
L 475.051866 356.889248 
L 475.90622 354.228037 
L 476.760574 363.538077 
L 477.614928 354.521862 
L 478.469282 369.25926 
L 479.323636 360.776126 
L 480.17799 367.86989 
L 480.605167 367.90347 
L 481.459522 363.848691 
L 484.022584 364.092146 
L 484.449761 366.816319 
L 485.731292 352.112501 
L 486.158469 325.189779 
L 486.585646 366.253855 
L 487.012823 369.116545 
L 487.44 339.536811 
L 487.867177 366.610642 
L 488.294354 364.780535 
L 488.721531 368.617044 
L 489.148708 350.240419 
L 489.575885 364.314613 
L 490.003062 365.317814 
L 490.430239 368.583464 
L 491.284593 365.670404 
L 491.71177 357.12011 
L 492.138947 367.743965 
L 492.566124 368.654821 
L 493.420478 366.736567 
L 493.847656 358.274421 
L 494.274833 363.08055 
L 494.70201 353.514463 
L 495.129187 349.107095 
L 495.556364 360.780324 
L 496.410718 357.741339 
L 497.692249 362.539074 
L 498.119426 367.928655 
L 498.97378 357.821091 
L 499.400957 367.639028 
L 499.828134 368.12174 
L 500.682488 364.054369 
L 501.964019 326.12582 
L 502.391196 331.901571 
L 503.24555 366.119535 
L 503.672727 343.776279 
L 504.099904 341.719508 
L 506.235789 285.573839 
L 506.662967 363.252647 
L 507.090144 368.688401 
L 507.517321 355.839875 
L 507.944498 365.326209 
L 508.371675 355.189263 
L 508.798852 363.546472 
L 509.226029 361.60723 
L 509.653206 363.118328 
L 510.080383 360.629214 
L 510.50756 361.67439 
L 510.934737 355.227041 
L 512.643445 368.293837 
L 513.070622 366.963231 
L 513.497799 362.035374 
L 513.924976 364.201281 
L 514.77933 357.795906 
L 515.633684 321.819192 
L 516.488038 367.890877 
L 516.915215 368.629636 
L 518.196746 354.933216 
L 518.623923 361.019581 
L 519.478278 368.184702 
L 519.905455 368.163714 
L 520.332632 366.354595 
L 520.759809 354.446307 
L 521.186986 368.377787 
L 521.614163 367.177304 
L 523.322871 363.768939 
L 524.177225 363.953629 
L 524.604402 366.875084 
L 525.031579 336.648936 
L 525.458756 350.584613 
L 525.885933 357.141097 
L 526.31311 368.306429 
L 526.740287 367.66841 
L 527.167464 241.525346 
L 527.594641 369.30963 
L 528.876172 364.528685 
L 529.303349 369.27605 
L 530.157703 299.156927 
L 530.58488 357.418132 
L 531.439234 367.81952 
L 531.866411 361.846487 
L 532.293589 345.379722 
L 534.002297 363.966221 
L 534.856651 368.663216 
L 535.283828 363.798322 
L 536.992536 358.131706 
L 537.84689 359.827493 
L 538.274067 353.086319 
L 539.128421 366.812122 
L 539.555598 368.671611 
L 539.982775 354.169272 
L 540.837129 369.015806 
L 541.264306 346.181443 
L 541.691483 362.849688 
L 542.11866 365.032385 
L 542.545837 352.695952 
L 543.400191 359.252436 
L 543.827368 365.443739 
L 544.254545 360.771929 
L 545.536077 362.001794 
L 546.817608 359.290214 
L 547.244785 357.737141 
L 547.671962 358.450715 
L 548.099139 360.742547 
L 548.953493 367.832112 
L 549.38067 359.076142 
L 549.807847 330.142821 
L 550.235024 365.179297 
L 550.662201 331.683301 
L 551.089378 353.447303 
L 551.516555 362.790923 
L 552.370909 359.911443 
L 553.225263 369.322223 
L 553.65244 369.221483 
L 554.079617 354.891241 
L 554.506794 361.099333 
L 554.933971 357.027765 
L 556.215502 362.602036 
L 556.642679 368.046185 
L 557.069856 363.672397 
L 557.497033 300.886294 
L 558.778565 365.628429 
L 559.205742 367.710385 
L 559.632919 358.782317 
L 560.060096 361.67439 
L 560.487273 367.559275 
L 561.341627 368.646426 
L 561.768804 347.411308 
L 562.195981 368.180504 
L 563.050335 351.625591 
L 563.904689 358.39195 
L 564.331866 345.350339 
L 564.759043 361.137111 
L 565.18622 355.256423 
L 566.040574 367.97063 
L 567.322105 365.196087 
L 567.749282 344.200226 
L 568.176459 342.319749 
L 568.603636 364.436341 
L 569.030813 353.70335 
L 569.45799 357.124307 
L 571.166699 358.773922 
L 572.44823 357.921831 
L 572.875407 355.4621 
L 573.302584 369.267655 
L 573.729761 357.850474 
L 574.156938 361.80871 
L 575.011292 359.416139 
L 575.438469 367.78594 
L 575.865646 363.764742 
L 576.292823 368.310627 
L 577.147177 357.460107 
L 577.574354 361.481305 
L 578.855885 343.478257 
L 579.283062 327.443833 
L 579.710239 366.879282 
L 580.137416 368.314824 
L 580.564593 361.733155 
L 580.99177 361.85908 
L 582.273301 368.050382 
L 583.554833 357.107517 
L 583.98201 367.466931 
L 585.263541 358.278618 
L 585.690718 360.230452 
L 586.117895 368.650624 
L 586.545072 323.355475 
L 586.972249 348.448089 
L 588.25378 369.297038 
L 588.680957 359.449719 
L 589.108134 364.63782 
L 589.535311 360.23465 
L 589.962488 364.730165 
L 591.244019 369.007411 
L 592.098373 367.345203 
L 592.52555 365.036582 
L 594.234258 344.447878 
L 595.515789 366.627432 
L 595.942967 360.297612 
L 596.370144 350.912018 
L 596.797321 347.495258 
L 597.224498 367.332611 
L 597.651675 364.545475 
L 598.506029 368.138529 
L 598.933206 365.871883 
L 599.360383 368.617044 
L 600.214737 284.927425 
L 600.641914 366.484717 
L 601.069091 365.729168 
L 601.496268 362.677591 
L 601.923445 368.680006 
L 602.350622 368.281244 
L 602.777799 354.790501 
L 603.204976 367.86989 
L 604.05933 367.878285 
L 605.340861 368.486921 
L 605.768038 368.843708 
L 746.309282 360.012183 
L 747.163636 355.839875 
L 747.163636 355.839875 
" clip-path="url(#pf64579591b)" style="fill: none; stroke: #1f77b4; stroke-width: 1.5; stroke-linecap: square"/>
   </g>
   <g id="patch_3">
    <path d="M 108 384.48 
L 108 51.84 
" style="fill: none; stroke: #000000; stroke-width: 0.8; stroke-linejoin: miter; stroke-linecap: square"/>
   </g>
   <g id="patch_4">
    <path d="M 777.6 384.48 
L 777.6 51.84 
" style="fill: none; stroke: #000000; stroke-width: 0.8; stroke-linejoin: miter; stroke-linecap: square"/>
   </g>
   <g id="patch_5">
    <path d="M 108 384.48 
L 777.6 384.48 
" style="fill: none; stroke: #000000; stroke-width: 0.8; stroke-linejoin: miter; stroke-linecap: square"/>
   </g>
   <g id="patch_6">
    <path d="M 108 51.84 
L 777.6 51.84 
" style="fill: none; stroke: #000000; stroke-width: 0.8; stroke-linejoin: miter; stroke-linecap: square"/>
   </g>
   <g id="text_20">
    <!-- Total Sales Over Time -->
    <g transform="translate(377.984062 45.84) scale(0.12 -0.12)">
     <defs>
      <path id="DejaVuSans-53" d="M 3425 4513 
L 3425 3897 
Q 3066 4069 2747 4153 
Q 2428 4238 2131 4238 
Q 1616 4238 1336 4038 
Q 1056 3838 1056 3469 
Q 1056 3159 1242 3001 
Q 1428 2844 1947 2747 
L 2328 2669 
Q 3034 2534 3370 2195 
Q 3706 1856 3706 1288 
Q 3706 609 3251 259 
Q 2797 -91 1919 -91 
Q 1588 -91 1214 -16 
Q 841 59 441 206 
L 441 856 
Q 825 641 1194 531 
Q 1563 422 1919 422 
Q 2459 422 2753 634 
Q 3047 847 3047 1241 
Q 3047 1584 2836 1778 
Q 2625 1972 2144 2069 
L 1759 2144 
Q 1053 2284 737 2584 
Q 422 2884 422 3419 
Q 422 4038 858 4394 
Q 1294 4750 2059 4750 
Q 2388 4750 2728 4690 
Q 3069 4631 3425 4513 
z
" transform="scale(0.015625)"/>
      <path id="DejaVuSans-73" d="M 2834 3397 
L 2834 2853 
Q 2591 2978 2328 3040 
Q 2066 3103 1784 3103 
Q 1356 3103 1142 2972 
Q 928 2841 928 2578 
Q 928 2378 1081 2264 
Q 1234 2150 1697 2047 
L 1894 2003 
Q 2506 1872 2764 1633 
Q 3022 1394 3022 966 
Q 3022 478 2636 193 
Q 2250 -91 1575 -91 
Q 1294 -91 989 -36 
Q 684 19 347 128 
L 347 722 
Q 666 556 975 473 
Q 1284 391 1588 391 
Q 1994 391 2212 530 
Q 2431 669 2431 922 
Q 2431 1156 2273 1281 
Q 2116 1406 1581 1522 
L 1381 1569 
Q 847 1681 609 1914 
Q 372 2147 372 2553 
Q 372 3047 722 3315 
Q 1072 3584 1716 3584 
Q 2034 3584 2315 3537 
Q 2597 3491 2834 3397 
z
" transform="scale(0.015625)"/>
      <path id="DejaVuSans-4f" d="M 2522 4238 
Q 1834 4238 1429 3725 
Q 1025 3213 1025 2328 
Q 1025 1447 1429 934 
Q 1834 422 2522 422 
Q 3209 422 3611 934 
Q 4013 1447 4013 2328 
Q 4013 3213 3611 3725 
Q 3209 4238 2522 4238 
z
M 2522 4750 
Q 3503 4750 4090 4092 
Q 4678 3434 4678 2328 
Q 4678 1225 4090 567 
Q 3503 -91 2522 -91 
Q 1538 -91 948 565 
Q 359 1222 359 2328 
Q 359 3434 948 4092 
Q 1538 4750 2522 4750 
z
" transform="scale(0.015625)"/>
      <path id="DejaVuSans-76" d="M 191 3500 
L 800 3500 
L 1894 563 
L 2988 3500 
L 3597 3500 
L 2284 0 
L 1503 0 
L 191 3500 
z
" transform="scale(0.015625)"/>
      <path id="DejaVuSans-72" d="M 2631 2963 
Q 2534 3019 2420 3045 
Q 2306 3072 2169 3072 
Q 1681 3072 1420 2755 
Q 1159 2438 1159 1844 
L 1159 0 
L 581 0 
L 581 3500 
L 1159 3500 
L 1159 2956 
Q 1341 3275 1631 3429 
Q 1922 3584 2338 3584 
Q 2397 3584 2469 3576 
Q 2541 3569 2628 3553 
L 2631 2963 
z
" transform="scale(0.015625)"/>
      <path id="DejaVuSans-69" d="M 603 3500 
L 1178 3500 
L 1178 0 
L 603 0 
L 603 3500 
z
M 603 4863 
L 1178 4863 
L 1178 4134 
L 603 4134 
L 603 4863 
z
" transform="scale(0.015625)"/>
     </defs>
     <use xlink:href="#DejaVuSans-54"/>
     <use xlink:href="#DejaVuSans-6f" x="44.083984"/>
     <use xlink:href="#DejaVuSans-74" x="105.265625"/>
     <use xlink:href="#DejaVuSans-61" x="144.474609"/>
     <use xlink:href="#DejaVuSans-6c" x="205.753906"/>
     <use xlink:href="#DejaVuSans-20" x="233.537109"/>
     <use xlink:href="#DejaVuSans-53" x="265.324219"/>
     <use xlink:href="#DejaVuSans-61" x="328.800781"/>
     <use xlink:href="#DejaVuSans-6c" x="390.080078"/>
     <use xlink:href="#DejaVuSans-65" x="417.863281"/>
     <use xlink:href="#DejaVuSans-73" x="479.386719"/>
     <use xlink:href="#DejaVuSans-20" x="531.486328"/>
     <use xlink:href="#DejaVuSans-4f" x="563.273438"/>
     <use xlink:href="#DejaVuSans-76" x="641.984375"/>
     <use xlink:href="#DejaVuSans-65" x="701.164062"/>
     <use xlink:href="#DejaVuSans-72" x="762.6875"/>
     <use xlink:href="#DejaVuSans-20" x="803.800781"/>
     <use xlink:href="#DejaVuSans-54" x="835.587891"/>
     <use xlink:href="#DejaVuSans-69" x="893.546875"/>
     <use xlink:href="#DejaVuSans-6d" x="921.330078"/>
     <use xlink:href="#DejaVuSans-65" x="1018.742188"/>
    </g>
   </g>
  </g>
 </g>
 <defs>
  <clipPath id="pf64579591b">
   <rect x="108" y="51.84" width="669.6" height="332.64"/>
  </clipPath>
 </defs>
</svg>
